<?xml version="1.0" encoding="utf-8"?>
<!-- Generator: Adobe Illustrator 16.0.3, SVG Export Plug-In . SVG Version: 6.00 Build 0)  -->
<!DOCTYPE svg PUBLIC "-//W3C//DTD SVG 1.1//EN" "http://www.w3.org/Graphics/SVG/1.1/DTD/svg11.dtd">
<svg version="1.1" id="cat_x5F_robo_x5F_fron" xmlns="http://www.w3.org/2000/svg" xmlns:xlink="http://www.w3.org/1999/xlink"
	 x="0px" y="0px" width="94.32px" height="114.572px" viewBox="-0.047 -4.922 94.32 114.572"
	 enable-background="new -0.047 -4.922 94.32 114.572" xml:space="preserve">
<g id="正面">
	<g>
		<g>
			<g>
				<path fill="#FF8100" d="M80.777,82.36c0.191,0.756-0.27,1.531-1.025,1.723l-3.57,0.907c-0.756,0.191-1.531-0.27-1.723-1.025
					l-7.673-30.222c-0.191-0.756,0.27-1.53,1.025-1.722l3.571-0.907c0.756-0.192,1.531,0.27,1.723,1.025L80.777,82.36z"/>
			</g>
			<g>
				<path fill="#FF8100" d="M13.45,82.36c-0.192,0.756,0.27,1.531,1.025,1.723l3.572,0.907c0.755,0.191,1.53-0.27,1.722-1.025
					l7.672-30.222c0.192-0.756-0.27-1.53-1.025-1.722l-3.572-0.907c-0.755-0.192-1.53,0.27-1.722,1.025L13.45,82.36z"/>
			</g>
		</g>
	</g>
	<g>
		<g>
			<path fill="#FF8100" d="M57.234,108.925c-0.13,0.47-0.625,0.866-1.093,0.88c-1.285,0.033-2.568,0.047-3.851,0.042
				c-0.468-0.002-0.832-0.406-0.815-0.897c0.205-5.707-0.041-11.473-0.453-17.27c-0.035-0.497,0.316-0.873,0.782-0.832
				c2.26,0.2,4.517,0.462,6.771,0.786c0.464,0.067,0.861,0.505,0.872,0.968C59.569,98.012,58.736,103.453,57.234,108.925z"/>
		</g>
		<g>
			<path fill="#FF8100" d="M36.993,108.925c0.13,0.47,0.625,0.866,1.093,0.88c1.285,0.033,2.568,0.047,3.851,0.042
				c0.467-0.002,0.832-0.406,0.815-0.897c-0.205-5.707,0.041-11.473,0.453-17.27c0.034-0.497-0.317-0.873-0.782-0.832
				c-2.26,0.2-4.518,0.462-6.771,0.786c-0.463,0.067-0.86,0.505-0.871,0.968C34.657,98.012,35.491,103.453,36.993,108.925z"/>
		</g>
	</g>
	<g>
		<path fill="#005BC9" d="M65.453,51.123c-0.094-0.321-0.379-0.559-0.739-0.569c0,0-8.306-0.245-17.637-0.296
			c-9.331,0.051-17.637,0.296-17.637,0.296c-0.36,0.011-0.645,0.248-0.739,0.569c0.041,0.633,0.089,1.268,0.134,1.902l4.016,38.218
			c0.12,0.91,0.239,1.819,0.362,2.729c0.168,0.304,0.496,0.523,0.846,0.531c0,0,6.112,0.136,13.019,0.163
			c6.907-0.027,13.019-0.163,13.019-0.163c0.35-0.008,0.678-0.228,0.846-0.531c0.123-0.91,0.242-1.819,0.363-2.729l4.016-38.219
			C65.365,52.39,65.412,51.756,65.453,51.123z"/>
		<g>
			<g>
				<g>
					<path fill="#26EFFF" d="M45.687,61.885c-0.312,0-0.646-0.242-0.742-0.539l-1.032-3.177c-0.096-0.297,0.031-0.688,0.283-0.872
						l2.702-1.963c0.252-0.184,0.665-0.184,0.917,0l2.701,1.963c0.253,0.184,0.38,0.575,0.284,0.872l-1.032,3.177
						c-0.096,0.297-0.43,0.539-0.741,0.539H45.687z"/>
				</g>
				<g>
					<path fill="#26EFFF" d="M46.134,73.991c-0.305,0.065-0.682-0.103-0.838-0.373l-1.669-2.893
						c-0.156-0.271-0.112-0.681,0.096-0.912l2.235-2.482c0.208-0.231,0.612-0.317,0.897-0.19l3.051,1.359
						c0.284,0.127,0.491,0.484,0.458,0.794l-0.35,3.322c-0.033,0.31-0.31,0.616-0.614,0.682L46.134,73.991z"/>
				</g>
				<g>
					<path fill="#26EFFF" d="M44.786,85.6c-0.307-0.057-0.591-0.355-0.632-0.664l-0.438-3.313c-0.041-0.309,0.155-0.672,0.437-0.806
						l3.012-1.44c0.282-0.134,0.688-0.06,0.902,0.167l2.302,2.42c0.215,0.227,0.27,0.636,0.121,0.909l-1.591,2.937
						c-0.148,0.273-0.521,0.452-0.827,0.396L44.786,85.6z"/>
				</g>
			</g>
		</g>
	</g>
	<g>
		<g>
			<g>
				<g>
					<path fill="#FF8100" d="M25.663,9.718c1.247,0,3.288,0,4.535,0h3.79c1.247,0,1.768-0.89,1.158-1.978l-1.943-3.464
						c-0.61-1.087-1.609-2.868-2.219-3.955L29.04-3.143c-0.61-1.087-1.609-1.087-2.219,0l-1.943,3.464
						c-0.61,1.087-1.609,2.868-2.219,3.955L20.716,7.74c-0.61,1.087-0.089,1.978,1.158,1.978H25.663z"/>
				</g>
				<g>
					<path fill="#FF8100" d="M64.03,9.718c1.247,0,3.288,0,4.535,0h3.789c1.247,0,1.769-0.89,1.158-1.978l-1.943-3.464
						c-0.61-1.087-1.608-2.868-2.219-3.955l-1.943-3.464c-0.61-1.087-1.608-1.087-2.219,0l-1.944,3.464
						c-0.61,1.087-1.608,2.868-2.219,3.955L59.08,7.74c-0.61,1.087-0.089,1.978,1.158,1.978H64.03z"/>
				</g>
			</g>
			<g>
				<g>
					<path fill="#F7FF00" d="M62.648,10.288c-0.779,0-1.086-0.545-0.681-1.211l3.594-5.914c0.405-0.666,1.067-0.666,1.473,0
						l3.594,5.914c0.405,0.666,0.099,1.211-0.681,1.211H62.648z"/>
				</g>
				<g>
					<path fill="#F7FF00" d="M24.282,10.288c-0.78,0-1.086-0.545-0.681-1.211l3.594-5.914c0.405-0.666,1.067-0.666,1.473,0
						l3.594,5.914c0.405,0.666,0.099,1.211-0.681,1.211H24.282z"/>
				</g>
			</g>
		</g>
	</g>
	<g>
		<g>
			<path fill="#FF8100" d="M20.339,49.827c-1.559,0-2.834-1.275-2.834-2.834V11.329c0-1.559,1.275-2.834,2.834-2.834h53.55
				c1.56,0,2.835,1.275,2.835,2.834v35.664c0,1.559-1.275,2.834-2.835,2.834H20.339z"/>
		</g>
		<g>
			<path fill="#D16A00" d="M23.768,46.142c-1.559,0-2.834-1.275-2.834-2.834V15.014c0-1.559,1.275-2.834,2.834-2.834h46.69
				c1.56,0,2.835,1.275,2.835,2.834v28.293c0,1.559-1.275,2.834-2.835,2.834H23.768z"/>
		</g>
		<g>
			<path fill="#FDFFE6" d="M24.336,45.575c-1.559,0-2.834-1.275-2.834-2.834v-27.16c0-1.559,1.275-2.834,2.834-2.834h45.556
				c1.56,0,2.835,1.275,2.835,2.834v27.16c0,1.559-1.275,2.834-2.835,2.834H24.336z"/>
		</g>
	</g>
	<g>
		<ellipse fill="#FFAAAA" cx="27.152" cy="32.603" rx="5.021" ry="3.452"/>
		<ellipse fill="#FFAAAA" cx="67.525" cy="32.603" rx="5.021" ry="3.452"/>
	</g>
	<g>
		
			<polyline fill="none" stroke="#4D1E00" stroke-width="1.5" stroke-linecap="round" stroke-linejoin="round" stroke-miterlimit="10" points="
			31.57,29.559 36.891,27.271 42.212,24.983 36.891,22.695 31.57,20.406 		"/>
		
			<polyline fill="none" stroke="#4D1E00" stroke-width="1.5" stroke-linecap="round" stroke-linejoin="round" stroke-miterlimit="10" points="
			62.657,29.559 57.336,27.271 52.015,24.983 57.336,22.695 62.657,20.406 		"/>
		
			<path fill="none" stroke="#4D1E00" stroke-width="1.5" stroke-linecap="round" stroke-linejoin="round" stroke-miterlimit="10" d="
			M38.44,32.845c0,2.437,1.975,4.411,4.41,4.411c2.063,0,3.782-1.423,4.264-3.337c0.481,1.914,2.2,3.337,4.264,3.337
			c2.436,0,4.41-1.975,4.41-4.411"/>
	</g>
	<g>
		<g>
			
				<line fill="none" stroke="#4D1E00" stroke-linecap="round" stroke-linejoin="round" stroke-miterlimit="10" x1="62.268" y1="33.4" x2="70.354" y2="32.172"/>
			
				<line fill="none" stroke="#4D1E00" stroke-linecap="round" stroke-linejoin="round" stroke-miterlimit="10" x1="70.354" y1="39.377" x2="62.268" y2="35.312"/>
		</g>
		<g>
			
				<line fill="none" stroke="#4D1E00" stroke-linecap="round" stroke-linejoin="round" stroke-miterlimit="10" x1="31.96" y1="33.4" x2="23.873" y2="32.172"/>
			
				<line fill="none" stroke="#4D1E00" stroke-linecap="round" stroke-linejoin="round" stroke-miterlimit="10" x1="23.873" y1="39.377" x2="31.959" y2="35.312"/>
		</g>
	</g>
</g>
</svg>
