<?xml version="1.0" encoding="utf-8"?>
<!-- Generator: Adobe Illustrator 16.0.3, SVG Export Plug-In . SVG Version: 6.00 Build 0)  -->
<!DOCTYPE svg PUBLIC "-//W3C//DTD SVG 1.1//EN" "http://www.w3.org/Graphics/SVG/1.1/DTD/svg11.dtd">
<svg version="1.1" id="レイヤー_1" xmlns="http://www.w3.org/2000/svg" xmlns:xlink="http://www.w3.org/1999/xlink" x="0px"
	 y="0px" width="94.32px" height="114.572px" viewBox="-0.047 -4.922 94.32 114.572"
	 enable-background="new -0.047 -4.922 94.32 114.572" xml:space="preserve">
<g id="悔しい">
	<g>
		<g>
			<path fill="#FF8100" d="M57.299,108.924c-0.13,0.469-0.625,0.865-1.093,0.879c-1.285,0.033-2.568,0.047-3.851,0.043
				c-0.467-0.002-0.832-0.406-0.815-0.898c0.205-5.707-0.041-11.473-0.453-17.27c-0.034-0.496,0.317-0.873,0.782-0.832
				c2.26,0.201,4.518,0.463,6.771,0.787c0.463,0.066,0.86,0.504,0.871,0.967C59.635,98.01,58.801,103.452,57.299,108.924z"/>
		</g>
		<g>
			<path fill="#FF8100" d="M37.059,108.924c0.13,0.469,0.625,0.865,1.093,0.879c1.285,0.033,2.568,0.047,3.85,0.043
				c0.467-0.002,0.832-0.406,0.816-0.898c-0.205-5.707,0.041-11.473,0.453-17.27c0.035-0.496-0.317-0.873-0.782-0.832
				c-2.26,0.201-4.517,0.463-6.771,0.787c-0.463,0.066-0.861,0.504-0.872,0.967C34.723,98.01,35.557,103.452,37.059,108.924z"/>
		</g>
	</g>
	<g>
		<path fill="#005BC9" d="M65.52,51.123c-0.095-0.32-0.38-0.559-0.74-0.568c0,0-8.306-0.246-17.636-0.297
			c-9.331,0.051-17.637,0.297-17.637,0.297c-0.36,0.01-0.645,0.248-0.74,0.568c0.042,0.633,0.089,1.268,0.134,1.901l4.016,38.217
			c0.12,0.91,0.239,1.82,0.362,2.73c0.168,0.303,0.497,0.523,0.846,0.531c0,0,6.112,0.135,13.019,0.162
			c6.907-0.027,13.019-0.162,13.019-0.162c0.349-0.008,0.678-0.229,0.846-0.531c0.123-0.91,0.242-1.82,0.362-2.73l4.016-38.219
			C65.43,52.39,65.478,51.755,65.52,51.123z"/>
		<g>
			<g>
				<g>
					<path fill="#26EFFF" d="M45.753,61.883c-0.312,0-0.646-0.242-0.742-0.539l-1.032-3.176c-0.097-0.297,0.031-0.689,0.283-0.872
						l2.702-1.963c0.252-0.183,0.665-0.183,0.917,0l2.701,1.963c0.253,0.183,0.38,0.575,0.284,0.872l-1.032,3.176
						c-0.096,0.297-0.43,0.539-0.742,0.539H45.753z"/>
				</g>
				<g>
					<path fill="#26EFFF" d="M46.2,73.99c-0.305,0.065-0.682-0.103-0.838-0.373l-1.669-2.893c-0.156-0.271-0.112-0.681,0.096-0.912
						l2.235-2.482c0.208-0.231,0.612-0.317,0.897-0.19l3.051,1.359c0.284,0.127,0.491,0.484,0.458,0.794l-0.349,3.322
						c-0.033,0.31-0.31,0.616-0.614,0.682L46.2,73.99z"/>
				</g>
				<g>
					<path fill="#26EFFF" d="M44.852,85.599c-0.307-0.057-0.591-0.355-0.632-0.664l-0.438-3.313
						c-0.041-0.309,0.155-0.672,0.437-0.806l3.013-1.441c0.281-0.134,0.687-0.06,0.902,0.167l2.301,2.42
						c0.215,0.227,0.27,0.636,0.121,0.909l-1.591,2.938c-0.148,0.273-0.521,0.452-0.827,0.396L44.852,85.599z"/>
				</g>
			</g>
		</g>
	</g>
	<g>
		<g>
			<g>
				<g>
					<path fill="#FF8100" d="M25.729,9.718c1.247,0,3.288,0,4.535,0h3.79c1.247,0,1.768-0.89,1.158-1.978l-1.943-3.464
						c-0.61-1.087-1.609-2.868-2.219-3.955l-1.943-3.464c-0.61-1.087-1.609-1.087-2.219,0l-1.943,3.464
						c-0.61,1.087-1.609,2.868-2.219,3.955l-1.943,3.464c-0.61,1.087-0.089,1.978,1.158,1.978H25.729z"/>
				</g>
				<g>
					<path fill="#FF8100" d="M64.095,9.718c1.247,0,3.288,0,4.535,0h3.789c1.247,0,1.769-0.89,1.158-1.978l-1.943-3.464
						c-0.61-1.087-1.608-2.868-2.219-3.955l-1.943-3.464c-0.61-1.087-1.608-1.087-2.219,0l-1.944,3.464
						c-0.61,1.087-1.608,2.868-2.219,3.955l-1.943,3.464c-0.61,1.087-0.089,1.978,1.158,1.978H64.095z"/>
				</g>
			</g>
			<g>
				<g>
					<path fill="#F7FF00" d="M62.713,10.289c-0.779,0-1.086-0.545-0.681-1.211l3.594-5.914c0.405-0.666,1.067-0.666,1.473,0
						l3.594,5.914c0.405,0.666,0.099,1.211-0.681,1.211H62.713z"/>
				</g>
				<g>
					<path fill="#F7FF00" d="M24.348,10.289c-0.78,0-1.086-0.545-0.681-1.211l3.594-5.914c0.405-0.666,1.067-0.666,1.473,0
						l3.594,5.914c0.405,0.666,0.099,1.211-0.681,1.211H24.348z"/>
				</g>
			</g>
		</g>
	</g>
	<g>
		<g>
			<path fill="#FF8100" d="M20.404,49.828c-1.559,0-2.834-1.275-2.834-2.834V11.329c0-1.559,1.275-2.834,2.834-2.834h53.55
				c1.56,0,2.835,1.275,2.835,2.834v35.664c0,1.559-1.275,2.834-2.835,2.834H20.404z"/>
		</g>
		<g>
			<path fill="#D16A00" d="M23.834,46.142c-1.559,0-2.834-1.275-2.834-2.834V15.014c0-1.559,1.275-2.834,2.834-2.834h46.69
				c1.56,0,2.835,1.275,2.835,2.834v28.294c0,1.559-1.275,2.834-2.835,2.834H23.834z"/>
		</g>
		<g>
			<path fill="#FDFFE6" d="M24.401,45.576c-1.559,0-2.834-1.275-2.834-2.834v-27.16c0-1.559,1.275-2.834,2.834-2.834h45.556
				c1.56,0,2.835,1.275,2.835,2.834v27.16c0,1.559-1.275,2.834-2.835,2.834H24.401z"/>
		</g>
	</g>
	<g>
		<ellipse fill="#FFAAAA" cx="27.217" cy="31.751" rx="5.021" ry="3.451"/>
		<ellipse fill="#FFAAAA" cx="67.59" cy="31.751" rx="5.021" ry="3.451"/>
	</g>
	<g>
		<g>
			<path fill="none" stroke="#4D1E00" stroke-linecap="round" stroke-linejoin="round" stroke-miterlimit="10" d="M48.198,18.867
				c0,0,0.263,2.561,2.055,3.115"/>
			<path fill="none" stroke="#4D1E00" stroke-linecap="round" stroke-linejoin="round" stroke-miterlimit="10" d="M50.704,19.666
				c1.674,1.752,1.646,1.471,2.854,0.984c2.274-0.912,4.096-4.188,4.096-4.188"/>
		</g>
		<g>
			<path fill="none" stroke="#4D1E00" stroke-linecap="round" stroke-linejoin="round" stroke-miterlimit="10" d="M46.162,18.867
				c0,0-0.263,2.561-2.055,3.115"/>
			<path fill="none" stroke="#4D1E00" stroke-linecap="round" stroke-linejoin="round" stroke-miterlimit="10" d="M43.655,19.666
				c-1.674,1.752-1.646,1.471-2.855,0.984c-2.274-0.912-4.095-4.188-4.095-4.188"/>
		</g>
	</g>
	<g>
		
			<path fill="#FFFFFF" stroke="#4D1E00" stroke-width="1.5" stroke-linecap="round" stroke-linejoin="round" stroke-miterlimit="10" d="
			M56.039,34.568h-0.008c-0.714,1.58-2.379,2.688-4.318,2.688c-2.194,0-4.021-1.422-4.534-3.336
			c-0.512,1.914-2.34,3.336-4.534,3.336c-1.939,0-3.604-1.107-4.318-2.688h-0.009c-2.466,1.063-3.345,7.836,4.093,5.145
			c1.977-0.877,3.59-0.885,4.768-0.908c1.178,0.023,2.791,0.031,4.768,0.908C59.385,42.404,58.506,35.63,56.039,34.568z"/>
		
			<path fill="none" stroke="#4D1E00" stroke-width="1.5" stroke-linecap="round" stroke-linejoin="round" stroke-miterlimit="10" d="
			M37.955,32.845c0,2.436,2.1,4.41,4.69,4.41c2.194,0,4.022-1.422,4.534-3.336c0.512,1.914,2.339,3.336,4.534,3.336
			c2.591,0,4.69-1.975,4.69-4.41"/>
	</g>
	<g>
		
			<polyline fill="none" stroke="#4D1E00" stroke-width="1.5" stroke-linecap="round" stroke-linejoin="round" stroke-miterlimit="10" points="
			31.635,29.558 36.957,27.271 42.278,24.984 36.957,22.695 31.635,20.406 		"/>
		
			<polyline fill="none" stroke="#4D1E00" stroke-width="1.5" stroke-linecap="round" stroke-linejoin="round" stroke-miterlimit="10" points="
			62.723,29.558 57.402,27.271 52.08,24.984 57.402,22.695 62.723,20.406 		"/>
	</g>
	<g>
		<g>
			
				<line fill="none" stroke="#4D1E00" stroke-linecap="round" stroke-linejoin="round" stroke-miterlimit="10" x1="62.333" y1="33.4" x2="70.419" y2="32.171"/>
			
				<line fill="none" stroke="#4D1E00" stroke-linecap="round" stroke-linejoin="round" stroke-miterlimit="10" x1="70.42" y1="39.376" x2="62.333" y2="35.312"/>
		</g>
		<g>
			
				<line fill="none" stroke="#4D1E00" stroke-linecap="round" stroke-linejoin="round" stroke-miterlimit="10" x1="32.026" y1="33.4" x2="23.939" y2="32.171"/>
			
				<line fill="none" stroke="#4D1E00" stroke-linecap="round" stroke-linejoin="round" stroke-miterlimit="10" x1="23.939" y1="39.376" x2="32.025" y2="35.312"/>
		</g>
	</g>
	<g>
		<path fill="#FF8100" d="M80.447,80.893c0.065,0.783-0.509,1.598-1.26,1.807c-1.185,0.33-2.368,0.658-3.552,0.988
			c-0.752,0.209-1.407-0.264-1.472-1.049c-0.861-10.457-3.677-20.662-8.301-30.081c-0.347-0.707-0.027-1.451,0.724-1.658
			c1.183-0.33,2.365-0.658,3.549-0.988c0.751-0.209,1.66,0.193,2.007,0.9C76.768,60.231,79.584,70.434,80.447,80.893z"/>
		<path fill="#FF8100" d="M13.781,80.893c-0.065,0.783,0.509,1.598,1.26,1.807c1.185,0.33,2.368,0.658,3.552,0.988
			c0.752,0.209,1.407-0.264,1.472-1.049c0.861-10.457,3.676-20.662,8.3-30.081c0.347-0.707,0.028-1.451-0.723-1.658
			c-1.183-0.33-2.366-0.658-3.549-0.988c-0.751-0.209-1.66,0.193-2.007,0.9C17.46,60.231,14.643,70.434,13.781,80.893z"/>
	</g>
</g>
</svg>
