<?xml version="1.0" encoding="utf-8"?>
<!-- Generator: Adobe Illustrator 16.0.3, SVG Export Plug-In . SVG Version: 6.00 Build 0)  -->
<!DOCTYPE svg PUBLIC "-//W3C//DTD SVG 1.1//EN" "http://www.w3.org/Graphics/SVG/1.1/DTD/svg11.dtd">
<svg version="1.1" id="cat_x5F_robo_x5F_right" xmlns="http://www.w3.org/2000/svg" xmlns:xlink="http://www.w3.org/1999/xlink"
	 x="0px" y="0px" width="94.32px" height="114.572px" viewBox="-0.047 -4.922 94.32 114.572"
	 enable-background="new -0.047 -4.922 94.32 114.572" xml:space="preserve">
<g id="歩き_x5F_右方向">
	<g>
		<path fill="#FF8100" d="M50.293,87.495c1.209,1.175,2.403,2.363,3.576,3.58c0.419,0.434,0.478,1.191,0.123,1.669
			c-4.141,5.589-9.274,10.454-15.112,14.825c-0.504,0.373-1.319,0.387-1.804,0.031c-0.892-0.656-1.764-1.332-2.64-2.004
			C38.406,102.659,48.212,90.17,50.293,87.495z"/>
		<path fill="#D16A00" d="M33.376,102.688c4.708-5.631,8.64-11.313,12.792-17.521c0.357-0.531,1.01-0.636,1.449-0.227
			c0.904,0.838,1.792,1.694,2.676,2.555c-2.081,2.676-11.887,15.164-15.856,18.102c-0.432-0.332-0.558-0.777-0.99-1.383
			C33.098,103.725,32.975,103.174,33.376,102.688z"/>
	</g>
	<g>
		<path fill="#9C4F00" d="M62.579,105.62c-0.09,0.268-0.249,0.494-0.436,0.679c-1.166,1.149-1.73,1.594-2.733,2.397
			c-0.469,0.375-0.856,0.846-1.564,0.742c-0.327-0.047-2.281-0.134-2.516-0.465l3.77-3.13L62.579,105.62z"/>
		<g>
			<path fill="#FF8100" d="M62.579,105.62l-3.479,0.224l-0.034,0.028c-1.161-2.78-8.194-13.186-11.869-18.06
				c0.821-0.47,1.638-0.944,2.468-1.4c0.527-0.29,3.219-0.116,3.624,0.319C54.913,88.476,62.148,103.375,62.579,105.62z"/>
			<path fill="#D16A00" d="M42.105,90.84c1.673-1.043,3.376-2.045,5.092-3.028c3.675,4.874,10.708,15.279,11.869,18.06l-3.735,3.102
				c-4.023-5.655-8.751-11.354-13.385-16.676C41.525,91.816,41.595,91.157,42.105,90.84z"/>
		</g>
	</g>
	<g>
		<path fill="#D16A00" d="M80.35,83.225L62.93,55.336c-0.165-0.266-0.224-0.725-0.131-1.023l0.244-0.779
			c-0.003-0.002-0.006-0.006-0.009-0.008c0.01-0.027,0.022-0.041,0.03-0.064l0.063-0.195c0.031-0.1,0.076-0.156,0.127-0.195
			c0.271-0.432,0.631-0.62,1.08-0.94l0.09,2.397l15.795,25.289l5.943-2.717c0,0,0.566,0.893,0.512,1.404
			c-0.041,0.379-0.646,0.785-0.975,0.979l-4.686,3.895v-0.002C80.846,83.532,80.49,83.448,80.35,83.225z"/>
		<g>
			<path fill="#FF8100" d="M80.566,80.373c0.413,0.661,1.292,0.864,1.953,0.451l3.125-1.951c0.661-0.413,0.864-1.292,0.451-1.953
				L69.577,50.472c-0.413-0.661-1.292-0.864-1.953-0.451l-3.127,1.954c-0.661,0.413-0.864,1.292-0.451,1.953L80.566,80.373z"/>
		</g>
		<g>
			<path fill="#9C4F00" d="M81.146,82.116c0.094-0.298,0.388-0.676,0.651-0.842l4.568-2.852c0.264-0.166,0.404-0.058,0.311,0.24
				l-0.324,1.025c-0.094,0.298-0.387,0.676-0.65,0.842l-4.57,2.854c-0.264,0.166-0.403,0.058-0.31-0.24L81.146,82.116z"/>
		</g>
	</g>
	<g>
		<path fill="#00397D" d="M40.377,93.699c-6.907-0.028-13.301-1.564-13.301-1.564c-0.35-0.009-0.678-0.226-0.846-0.526
			c-0.123-0.9-0.242-1.8-0.361-2.7L21.854,53.34c-0.045-0.628-0.094-1.255-0.135-1.881c0.096-0.318,0.379-0.552,0.74-0.563
			c0,0,6.887-1.086,16.219-1.135L40.377,93.699z"/>
		<path fill="#005BC9" d="M35.235,50.391c0.095-0.321,0.379-0.559,0.74-0.569c0,0,8.305-0.245,17.637-0.296
			c9.33,0.051,17.637,0.296,17.637,0.296c0.359,0.011,0.645,0.248,0.739,0.569c-0.042,0.633-0.089,1.268-0.134,1.9L67.838,90.51
			c-0.12,0.91-0.239,1.819-0.362,2.73c-0.168,0.303-0.497,0.522-0.846,0.531c0,0-6.112,0.135-13.019,0.162
			c-6.907-0.027-13.02-0.162-13.02-0.162c-0.35-0.009-0.678-0.229-0.846-0.531c-0.123-0.911-0.242-1.82-0.362-2.73l-4.016-38.219
			C35.324,51.657,35.276,51.023,35.235,50.391z"/>
	</g>
	<g>
		<path fill="#199BA6" d="M54.442,54.586l3.182,2.1c0.253,0.184,0.38,0.576,0.284,0.873l-1.033,3.176
			c-0.096,0.297-0.43,0.539-0.742,0.539h-1.133h-2.206H51.66c-0.313,0-0.646-0.242-0.742-0.539l-1.032-3.176
			c-0.096-0.297,0.031-0.689,0.284-0.873l2.701-1.963L54.442,54.586z"/>
		<path fill="#199BA6" d="M52.615,85.595c-0.307,0.056-0.679-0.122-0.827-0.396l-1.591-2.937c-0.148-0.274-0.094-0.684,0.121-0.909
			l2.301-2.421l1.714-0.239l3.334,1.514c0.281,0.135,0.479,0.497,0.438,0.807l-0.439,3.311c-0.041,0.309-0.325,0.608-0.632,0.664
			l-3.285,0.605L52.615,85.595z"/>
		<path fill="#199BA6" d="M54.553,73.38l-3.268-0.694c-0.305-0.064-0.581-0.371-0.614-0.682l-0.349-3.321
			c-0.033-0.31,0.174-0.668,0.458-0.795l3.051-1.358h1.133c0.284-0.127,0.688-0.041,0.897,0.19l2.234,2.481
			c0.209,0.232,0.252,0.643,0.097,0.912l-1.669,2.893c-0.155,0.271-0.533,0.438-0.838,0.374H54.553z"/>
	</g>
	<g>
		<g>
			<g>
				<path fill="#26EFFF" d="M56.132,61.274c0.313,0,0.646-0.242,0.742-0.539l1.033-3.176c0.096-0.297-0.031-0.689-0.284-0.872
					l-2.701-1.964c-0.253-0.183-0.665-0.183-0.918,0l-2.701,1.964c-0.253,0.183-0.38,0.575-0.284,0.872l1.032,3.176
					c0.096,0.297,0.43,0.539,0.742,0.539H56.132z"/>
			</g>
			<g>
				<path fill="#26EFFF" d="M55.686,73.38c0.305,0.065,0.683-0.103,0.838-0.373l1.669-2.893c0.155-0.271,0.112-0.681-0.097-0.912
					l-2.234-2.482c-0.209-0.231-0.613-0.317-0.897-0.19l-3.051,1.359c-0.284,0.127-0.491,0.484-0.458,0.794l0.349,3.322
					c0.033,0.31,0.31,0.616,0.614,0.682L55.686,73.38z"/>
			</g>
			<g>
				<path fill="#26EFFF" d="M57.033,84.99c0.307-0.057,0.591-0.355,0.632-0.665l0.439-3.311c0.041-0.31-0.156-0.673-0.438-0.807
					l-3.013-1.441c-0.281-0.134-0.688-0.06-0.902,0.167l-2.301,2.42c-0.215,0.227-0.27,0.636-0.121,0.909l1.591,2.938
					c0.148,0.273,0.521,0.452,0.827,0.396L57.033,84.99z"/>
			</g>
		</g>
	</g>
	<g>
		<path fill="#D16A00" d="M7.649,79.209l16.636-28.366c0.157-0.268,0.538-0.533,0.845-0.588l0.805-0.146
			c0.002-0.004,0.002-0.008,0.003-0.012c0.028-0.004,0.046,0.001,0.072-0.002l0.202-0.036c0.101-0.019,0.173-0.005,0.231,0.022
			c0.509,0.041,0.842,0.271,1.333,0.521l-2.083,1.19L10.607,77.512l5.163,4.008c0,0-0.528,0.914-1.007,1.104
			c-0.354,0.141-0.996-0.209-1.32-0.41l-5.622-2.346l0.002-0.002C7.608,79.79,7.515,79.436,7.649,79.209z"/>
		<g>
			<path fill="#FF8100" d="M10.277,78.077c-0.394,0.673-0.167,1.545,0.506,1.939l3.178,1.865c0.672,0.395,1.545,0.167,1.94-0.506
				l15.775-26.895c0.395-0.673,0.167-1.545-0.505-1.94l-3.18-1.866c-0.672-0.395-1.545-0.167-1.939,0.505L10.277,78.077z"/>
		</g>
		<g>
			<path fill="#9C4F00" d="M9.002,79.399c0.307-0.055,0.778,0.029,1.047,0.188l4.646,2.725c0.269,0.158,0.238,0.332-0.069,0.387
				l-1.06,0.189c-0.307,0.055-0.778-0.029-1.047-0.188L7.87,79.975c-0.269-0.158-0.238-0.332,0.069-0.387L9.002,79.399z"/>
		</g>
	</g>
	<g>
		<g>
			<path fill="#D16A00" d="M28.529,9.678l-4.743-0.072c-1.24,0.127-2.115,0.016-1.548-1.095c0,0,2.204-4.511,4.333-7.125
				c2.375-2.917,6.208-6,7.396-6.002C34.444-3.875,28.529,9.678,28.529,9.678z"/>
			<path fill="#FF8100" d="M26.693,9.106c-1.071,0.026-0.581-0.825-0.313-1.415c0.73-1.607,1.335-3.279,2.185-4.826
				c0.881-1.604,2.462-4.145,3.903-6.104c0.48-0.653,1.269-1.584,2.003-1.479c0.641,0.311,0.951,0.977,1.35,1.686
				c1.155,2.059,2.636,5.4,3.791,7.459c0.563,1.005,1.637,3.321,2.454,4.139L26.693,9.106z"/>
			<path fill="#F7FF00" d="M38.041,9.555c0.779,0,0.893-0.211,0.487-0.877c0,0-0.166-0.584-1.5-2.959
				c-1.115-1.984-1.9-3.289-1.9-3.289c-0.405-0.666-0.896-0.477-1.473,0c0,0-0.907,0.848-2.02,2.648s-1.574,3.266-1.574,3.266
				c-0.405,0.666-0.099,1.211,0.681,1.211H38.041z"/>
		</g>
		<g>
			<path fill="#D16A00" d="M66.692,9.678l-4.744-0.072c-1.24,0.127-2.115,0.016-1.547-1.095c0,0,2.203-4.511,4.332-7.125
				c2.375-2.917,6.209-6,7.396-6.002C72.606-3.875,66.692,9.678,66.692,9.678z"/>
			<path fill="#FF8100" d="M64.856,9.106c-1.072,0.026-0.582-0.825-0.313-1.415c0.73-1.607,1.334-3.279,2.184-4.826
				c0.881-1.604,2.463-4.145,3.904-6.104c0.48-0.653,1.268-1.584,2.002-1.479c0.641,0.311,0.951,0.977,1.35,1.686
				c1.156,2.059,2.637,5.4,3.791,7.459c0.564,1.005,1.637,3.321,2.455,4.139L64.856,9.106z"/>
			<path fill="#F7FF00" d="M76.203,9.555c0.779,0,0.893-0.211,0.488-0.877c0,0-0.166-0.584-1.5-2.959
				c-1.115-1.984-1.9-3.289-1.9-3.289c-0.406-0.666-0.896-0.477-1.473,0c0,0-0.908,0.848-2.02,2.648
				c-1.113,1.801-1.574,3.266-1.574,3.266c-0.406,0.666-0.1,1.211,0.68,1.211H76.203z"/>
		</g>
	</g>
	<g>
		<path fill="#D16A00" d="M26.282,7.838l-9.938,1.597c-1.545,0.198-2.811,1.636-2.811,3.195v31.596c0,1.56,1.266,2.997,2.811,3.195
			l9.938,1.597V7.838z"/>
		<g>
			<path fill="#FF8100" d="M80.35,49.094c1.56,0,2.835-1.275,2.835-2.834V10.596c0-1.559-1.275-2.834-2.835-2.834H26.8
				c-1.559,0-2.834,1.275-2.834,2.834v35.663c0,1.559,1.275,2.834,2.834,2.834H80.35z"/>
		</g>
		<g>
			<path fill="#FDFFE6" d="M76.353,44.842c1.56,0,2.835-1.275,2.835-2.834V14.848c0-1.559-1.275-2.834-2.835-2.834H30.796
				c-1.559,0-2.834,1.275-2.834,2.834v27.159c0,1.559,1.275,2.834,2.834,2.834H76.353z"/>
		</g>
		<path fill="#D16A00" d="M78.62,42.008v-27.16c0-1.559-1.275-2.834-2.835-2.834h0.568c1.559,0,2.834,1.275,2.834,2.834v27.16
			c0,1.559-1.275,2.834-2.834,2.834h-0.568C77.345,44.842,78.62,43.566,78.62,42.008z"/>
	</g>
	<g>
		<ellipse fill="#FFAAAA" cx="74.092" cy="31.869" rx="4.44" ry="3.453"/>
		<ellipse fill="#FFAAAA" cx="34.065" cy="31.869" rx="5.536" ry="3.453"/>
	</g>
	<g>
		
			<polyline fill="none" stroke="#4D1E00" stroke-width="1.5" stroke-linecap="round" stroke-linejoin="round" stroke-miterlimit="10" points="
			70.537,28.826 65.216,26.538 59.893,24.25 65.216,21.962 70.537,19.674 		"/>
		
			<polyline fill="none" stroke="#4D1E00" stroke-width="1.5" stroke-linecap="round" stroke-linejoin="round" stroke-miterlimit="10" points="
			39.448,28.826 44.769,26.538 50.09,24.25 44.769,21.962 39.448,19.674 		"/>
		
			<path fill="none" stroke="#4D1E00" stroke-width="1.5" stroke-linecap="round" stroke-linejoin="round" stroke-miterlimit="10" d="
			M63.668,32.112c0,2.437-1.975,4.411-4.414,4.411c-2.063,0-3.781-1.424-4.264-3.338c-0.48,1.914-2.199,3.338-4.264,3.338
			c-2.436,0-4.41-1.975-4.41-4.411"/>
	</g>
	<g>
		<g>
			
				<line fill="none" stroke="#4D1E00" stroke-linecap="round" stroke-linejoin="round" stroke-miterlimit="10" x1="39.837" y1="32.668" x2="31.75" y2="31.439"/>
			
				<line fill="none" stroke="#4D1E00" stroke-linecap="round" stroke-linejoin="round" stroke-miterlimit="10" x1="31.75" y1="38.645" x2="39.836" y2="34.579"/>
		</g>
		<g>
			
				<line fill="none" stroke="#4D1E00" stroke-linecap="round" stroke-linejoin="round" stroke-miterlimit="10" x1="70.147" y1="32.668" x2="78.234" y2="31.439"/>
			
				<line fill="none" stroke="#4D1E00" stroke-linecap="round" stroke-linejoin="round" stroke-miterlimit="10" x1="78.235" y1="38.645" x2="70.148" y2="34.579"/>
		</g>
	</g>
</g>
</svg>
