<?xml version="1.0" encoding="utf-8"?>
<!-- Generator: Adobe Illustrator 16.0.3, SVG Export Plug-In . SVG Version: 6.00 Build 0)  -->
<!DOCTYPE svg PUBLIC "-//W3C//DTD SVG 1.1//EN" "http://www.w3.org/Graphics/SVG/1.1/DTD/svg11.dtd">
<svg version="1.1" id="cat_x5F_robo_x5F_left" xmlns="http://www.w3.org/2000/svg" xmlns:xlink="http://www.w3.org/1999/xlink"
	 x="0px" y="0px" width="94.32px" height="114.572px" viewBox="-0.047 -4.922 94.32 114.572"
	 enable-background="new -0.047 -4.922 94.32 114.572" xml:space="preserve">
<g id="歩き_x5F_左方向">
	<g>
		<path fill="#FF8100" d="M43.934,87.495c-1.209,1.175-2.403,2.363-3.576,3.58c-0.419,0.434-0.478,1.191-0.123,1.669
			c4.141,5.589,9.274,10.454,15.112,14.825c0.504,0.373,1.319,0.387,1.804,0.031c0.892-0.656,1.764-1.332,2.64-2.004
			C55.821,102.659,46.015,90.17,43.934,87.495z"/>
		<path fill="#D16A00" d="M60.851,102.688c-4.708-5.631-8.64-11.313-12.792-17.521c-0.357-0.531-1.01-0.636-1.449-0.227
			c-0.904,0.838-1.792,1.694-2.676,2.555c2.081,2.676,11.887,15.164,15.856,18.102c0.432-0.332,0.558-0.777,0.99-1.383
			C61.129,103.725,61.252,103.174,60.851,102.688z"/>
	</g>
	<g>
		<path fill="#9C4F00" d="M31.648,105.62c0.09,0.268,0.249,0.494,0.436,0.679c1.166,1.149,1.73,1.594,2.733,2.397
			c0.469,0.375,0.856,0.846,1.564,0.742c0.327-0.047,2.281-0.134,2.516-0.465l-3.77-3.13L31.648,105.62z"/>
		<g>
			<path fill="#FF8100" d="M31.648,105.62l3.479,0.224l0.034,0.028c1.161-2.78,8.194-13.186,11.869-18.06
				c-0.821-0.47-1.638-0.944-2.468-1.4c-0.527-0.29-3.219-0.116-3.624,0.319C39.314,88.476,32.079,103.375,31.648,105.62z"/>
			<path fill="#D16A00" d="M52.122,90.84c-1.673-1.043-3.376-2.045-5.092-3.028c-3.675,4.874-10.708,15.279-11.869,18.06
				l3.735,3.102c4.023-5.655,8.751-11.354,13.385-16.676C52.702,91.816,52.632,91.157,52.122,90.84z"/>
		</g>
	</g>
	<g>
		<path fill="#D16A00" d="M13.877,83.225l17.42-27.889c0.165-0.266,0.224-0.725,0.131-1.023l-0.244-0.779
			c0.003-0.002,0.006-0.006,0.009-0.008c-0.01-0.027-0.022-0.041-0.03-0.064L31.1,53.266c-0.031-0.1-0.076-0.156-0.127-0.195
			c-0.271-0.432-0.631-0.62-1.08-0.94l-0.09,2.397L14.008,79.817L8.065,77.1c0,0-0.566,0.893-0.512,1.404
			c0.041,0.379,0.646,0.785,0.975,0.979l4.686,3.895v-0.002C13.381,83.532,13.738,83.448,13.877,83.225z"/>
		<g>
			<path fill="#FF8100" d="M13.661,80.373c-0.413,0.661-1.292,0.864-1.953,0.451l-3.125-1.951c-0.661-0.413-0.864-1.292-0.451-1.953
				L24.65,50.472c0.413-0.661,1.292-0.864,1.953-0.451l3.127,1.954c0.661,0.413,0.864,1.292,0.451,1.953L13.661,80.373z"/>
		</g>
		<g>
			<path fill="#9C4F00" d="M13.081,82.116c-0.094-0.298-0.387-0.676-0.652-0.842l-4.567-2.852c-0.265-0.166-0.404-0.058-0.311,0.24
				l0.323,1.025c0.094,0.298,0.387,0.676,0.651,0.842l4.569,2.854c0.265,0.166,0.404,0.058,0.31-0.24L13.081,82.116z"/>
		</g>
	</g>
	<g>
		<path fill="#00397D" d="M53.85,93.699c6.907-0.028,13.3-1.564,13.3-1.564c0.35-0.009,0.678-0.226,0.846-0.526
			c0.123-0.9,0.242-1.8,0.363-2.7l4.016-35.567c0.043-0.628,0.092-1.255,0.133-1.881c-0.094-0.318-0.379-0.552-0.74-0.563
			c0,0-6.886-1.086-16.218-1.135L53.85,93.699z"/>
		<path fill="#005BC9" d="M58.992,50.391c-0.095-0.321-0.379-0.559-0.74-0.569c0,0-8.305-0.245-17.637-0.296
			c-9.33,0.051-17.637,0.296-17.637,0.296c-0.359,0.011-0.645,0.248-0.739,0.569c0.042,0.633,0.089,1.268,0.134,1.9l4.016,38.219
			c0.12,0.91,0.239,1.819,0.362,2.73c0.168,0.303,0.497,0.522,0.846,0.531c0,0,6.112,0.135,13.019,0.162
			c6.907-0.027,13.02-0.162,13.02-0.162c0.35-0.009,0.678-0.229,0.846-0.531c0.123-0.911,0.242-1.82,0.362-2.73l4.016-38.219
			C58.903,51.657,58.951,51.023,58.992,50.391z"/>
	</g>
	<g>
		<path fill="#199BA6" d="M39.785,54.586l-3.182,2.1c-0.253,0.184-0.38,0.576-0.284,0.873l1.033,3.176
			c0.096,0.297,0.43,0.539,0.742,0.539h1.133h2.206h1.133c0.313,0,0.646-0.242,0.742-0.539l1.032-3.176
			c0.096-0.297-0.031-0.689-0.284-0.873l-2.701-1.963L39.785,54.586z"/>
		<path fill="#199BA6" d="M41.612,85.595c0.307,0.056,0.679-0.122,0.827-0.396l1.591-2.937c0.148-0.274,0.094-0.684-0.121-0.909
			l-2.301-2.421l-1.714-0.239l-3.334,1.514c-0.281,0.135-0.479,0.497-0.438,0.807l0.439,3.311c0.041,0.309,0.325,0.608,0.632,0.664
			l3.285,0.605L41.612,85.595z"/>
		<path fill="#199BA6" d="M39.674,73.38l3.268-0.694c0.305-0.064,0.581-0.371,0.614-0.682l0.349-3.321
			c0.033-0.31-0.174-0.668-0.458-0.795l-3.051-1.358h-1.133c-0.284-0.127-0.688-0.041-0.897,0.19l-2.234,2.481
			c-0.209,0.232-0.252,0.643-0.097,0.912l1.669,2.893c0.155,0.271,0.533,0.438,0.838,0.374H39.674z"/>
	</g>
	<g>
		<g>
			<g>
				<path fill="#26EFFF" d="M38.094,61.274c-0.312,0-0.646-0.242-0.742-0.539l-1.032-3.176c-0.096-0.297,0.031-0.689,0.283-0.872
					l2.702-1.964c0.252-0.183,0.665-0.183,0.917,0l2.702,1.964c0.252,0.183,0.38,0.575,0.283,0.872l-1.031,3.176
					c-0.097,0.297-0.43,0.539-0.742,0.539H38.094z"/>
			</g>
			<g>
				<path fill="#26EFFF" d="M38.541,73.38c-0.305,0.065-0.682-0.103-0.838-0.373l-1.669-2.893c-0.156-0.271-0.112-0.681,0.096-0.912
					l2.235-2.482c0.208-0.231,0.612-0.317,0.897-0.19l3.051,1.359c0.285,0.127,0.491,0.484,0.458,0.794l-0.35,3.322
					c-0.032,0.31-0.309,0.616-0.614,0.682L38.541,73.38z"/>
			</g>
			<g>
				<path fill="#26EFFF" d="M37.194,84.99c-0.307-0.057-0.591-0.355-0.632-0.664l-0.438-3.313c-0.041-0.309,0.155-0.672,0.437-0.806
					l3.014-1.441c0.281-0.134,0.687-0.06,0.902,0.167l2.301,2.42c0.215,0.227,0.269,0.636,0.121,0.909l-1.59,2.938
					c-0.148,0.273-0.521,0.452-0.828,0.396L37.194,84.99z"/>
			</g>
		</g>
	</g>
	<g>
		<path fill="#D16A00" d="M86.578,79.209L69.943,50.844c-0.157-0.268-0.538-0.533-0.845-0.588l-0.805-0.146
			c-0.002-0.004-0.002-0.008-0.003-0.012c-0.028-0.004-0.046,0.001-0.072-0.002l-0.202-0.036c-0.101-0.019-0.173-0.005-0.231,0.022
			c-0.509,0.041-0.842,0.271-1.333,0.521l2.083,1.19L83.62,77.512l-5.163,4.008c0,0,0.528,0.914,1.007,1.104
			c0.354,0.141,0.996-0.209,1.32-0.41l5.622-2.346l-0.002-0.002C86.619,79.79,86.712,79.436,86.578,79.209z"/>
		<g>
			<path fill="#FF8100" d="M83.95,78.077c0.395,0.673,0.167,1.545-0.506,1.939l-3.178,1.865c-0.673,0.395-1.545,0.167-1.939-0.506
				L62.551,54.481c-0.395-0.673-0.167-1.545,0.506-1.94l3.18-1.866c0.673-0.395,1.545-0.167,1.939,0.505L83.95,78.077z"/>
		</g>
		<g>
			<path fill="#9C4F00" d="M85.225,79.399c-0.307-0.055-0.777,0.029-1.047,0.188l-4.645,2.725c-0.27,0.158-0.238,0.332,0.068,0.387
				l1.061,0.189c0.307,0.055,0.777-0.029,1.047-0.188l4.647-2.725c0.27-0.158,0.238-0.332-0.068-0.387L85.225,79.399z"/>
		</g>
	</g>
	<g>
		<g>
			<path fill="#D16A00" d="M65.698,9.678l4.743-0.072c1.24,0.127,2.115,0.016,1.548-1.095c0,0-2.204-4.511-4.333-7.125
				c-2.375-2.917-6.208-6-7.396-6.002C59.783-3.875,65.698,9.678,65.698,9.678z"/>
			<path fill="#FF8100" d="M67.534,9.106c1.071,0.026,0.581-0.825,0.313-1.415c-0.73-1.607-1.335-3.279-2.185-4.826
				c-0.881-1.604-2.462-4.145-3.903-6.104c-0.48-0.653-1.269-1.584-2.003-1.479c-0.641,0.311-0.951,0.977-1.35,1.686
				c-1.155,2.059-2.636,5.4-3.791,7.459c-0.563,1.005-1.637,3.321-2.454,4.139L67.534,9.106z"/>
			<path fill="#F7FF00" d="M56.186,9.555c-0.779,0-0.893-0.211-0.487-0.877c0,0,0.166-0.584,1.5-2.959
				c1.115-1.984,1.9-3.289,1.9-3.289c0.405-0.666,0.896-0.477,1.473,0c0,0,0.907,0.848,2.02,2.648s1.574,3.266,1.574,3.266
				c0.405,0.666,0.099,1.211-0.681,1.211H56.186z"/>
		</g>
		<g>
			<path fill="#D16A00" d="M27.535,9.678l4.744-0.072c1.24,0.127,2.115,0.016,1.547-1.095c0,0-2.203-4.511-4.332-7.125
				c-2.375-2.917-6.209-6-7.396-6.002C21.621-3.875,27.535,9.678,27.535,9.678z"/>
			<path fill="#FF8100" d="M29.371,9.106c1.072,0.026,0.582-0.825,0.313-1.415c-0.73-1.607-1.334-3.279-2.184-4.826
				c-0.881-1.604-2.463-4.145-3.904-6.104c-0.48-0.653-1.268-1.584-2.002-1.479c-0.641,0.311-0.951,0.977-1.35,1.686
				c-1.156,2.059-2.637,5.4-3.791,7.459c-0.564,1.005-1.637,3.321-2.455,4.139L29.371,9.106z"/>
			<path fill="#F7FF00" d="M18.024,9.555c-0.779,0-0.893-0.211-0.488-0.877c0,0,0.166-0.584,1.5-2.959
				c1.115-1.984,1.9-3.289,1.9-3.289c0.406-0.666,0.896-0.477,1.473,0c0,0,0.908,0.848,2.02,2.648
				c1.113,1.801,1.574,3.266,1.574,3.266c0.406,0.666,0.1,1.211-0.68,1.211H18.024z"/>
		</g>
	</g>
	<g>
		<path fill="#D16A00" d="M67.945,7.838l9.938,1.597c1.547,0.198,2.813,1.636,2.813,3.195v31.596c0,1.56-1.266,2.997-2.813,3.195
			l-9.938,1.597V7.838z"/>
		<g>
			<path fill="#FF8100" d="M13.877,49.094c-1.559,0-2.834-1.275-2.834-2.834V10.596c0-1.559,1.275-2.834,2.834-2.834h53.55
				c1.56,0,2.835,1.275,2.835,2.834v35.663c0,1.559-1.275,2.834-2.835,2.834H13.877z"/>
		</g>
		<g>
			<path fill="#FDFFE6" d="M17.874,44.842c-1.559,0-2.834-1.275-2.834-2.834V14.848c0-1.559,1.275-2.834,2.834-2.834h45.557
				c1.56,0,2.835,1.275,2.835,2.834v27.159c0,1.559-1.275,2.834-2.835,2.834H17.874z"/>
		</g>
		<path fill="#D16A00" d="M15.607,42.008v-27.16c0-1.559,1.275-2.834,2.835-2.834h-0.568c-1.559,0-2.834,1.275-2.834,2.834v27.16
			c0,1.559,1.275,2.834,2.834,2.834h0.568C16.882,44.842,15.607,43.566,15.607,42.008z"/>
	</g>
	<g>
		<ellipse fill="#FFAAAA" cx="20.135" cy="31.869" rx="4.44" ry="3.453"/>
		<ellipse fill="#FFAAAA" cx="60.162" cy="31.869" rx="5.536" ry="3.453"/>
	</g>
	<g>
		
			<polyline fill="none" stroke="#4D1E00" stroke-width="1.5" stroke-linecap="round" stroke-linejoin="round" stroke-miterlimit="10" points="
			23.69,28.826 29.011,26.538 34.334,24.25 29.011,21.962 23.69,19.674 		"/>
		
			<polyline fill="none" stroke="#4D1E00" stroke-width="1.5" stroke-linecap="round" stroke-linejoin="round" stroke-miterlimit="10" points="
			54.78,28.826 49.458,26.538 44.137,24.25 49.458,21.962 54.78,19.674 		"/>
		
			<path fill="none" stroke="#4D1E00" stroke-width="1.5" stroke-linecap="round" stroke-linejoin="round" stroke-miterlimit="10" d="
			M30.559,32.112c0,2.437,1.975,4.411,4.414,4.411c2.063,0,3.781-1.424,4.264-3.338c0.48,1.914,2.199,3.338,4.264,3.338
			c2.436,0,4.41-1.975,4.41-4.411"/>
	</g>
	<g>
		<g>
			
				<line fill="none" stroke="#4D1E00" stroke-linecap="round" stroke-linejoin="round" stroke-miterlimit="10" x1="54.39" y1="32.668" x2="62.477" y2="31.439"/>
			
				<line fill="none" stroke="#4D1E00" stroke-linecap="round" stroke-linejoin="round" stroke-miterlimit="10" x1="62.477" y1="38.645" x2="54.391" y2="34.579"/>
		</g>
		<g>
			
				<line fill="none" stroke="#4D1E00" stroke-linecap="round" stroke-linejoin="round" stroke-miterlimit="10" x1="24.08" y1="32.668" x2="15.993" y2="31.439"/>
			
				<line fill="none" stroke="#4D1E00" stroke-linecap="round" stroke-linejoin="round" stroke-miterlimit="10" x1="15.992" y1="38.645" x2="24.079" y2="34.579"/>
		</g>
	</g>
</g>
</svg>
