<?xml version="1.0" encoding="utf-8"?>
<!-- Generator: Adobe Illustrator 16.0.3, SVG Export Plug-In . SVG Version: 6.00 Build 0)  -->
<!DOCTYPE svg PUBLIC "-//W3C//DTD SVG 1.1//EN" "http://www.w3.org/Graphics/SVG/1.1/DTD/svg11.dtd">
<svg version="1.1" id="cat_x5F_robo_x5F_happy" xmlns="http://www.w3.org/2000/svg" xmlns:xlink="http://www.w3.org/1999/xlink"
	 x="0px" y="0px" width="94.32px" height="114.572px" viewBox="-0.047 -4.922 94.32 114.572"
	 enable-background="new -0.047 -4.922 94.32 114.572" xml:space="preserve">
<g id="やったー">
	<g>
		<g>
			<path fill="#FF8100" d="M94.019,24.98c0.447-0.639,0.29-1.527-0.349-1.974l-3.021-2.111c-0.639-0.447-1.526-0.29-1.974,0.349
				L65.981,53.704c-0.447,0.639-0.29,1.526,0.349,1.974l3.02,2.109c0.639,0.447,1.526,0.29,1.974-0.349L94.019,24.98z"/>
		</g>
		<g>
			<path fill="#FF8100" d="M28.247,53.704c0.447,0.639,0.289,1.526-0.35,1.973l-3.019,2.111c-0.639,0.446-1.527,0.289-1.974-0.35
				L0.208,24.98c-0.447-0.639-0.29-1.527,0.35-1.974l3.019-2.111c0.639-0.447,1.527-0.29,1.974,0.349L28.247,53.704z"/>
		</g>
	</g>
	<g>
		<path fill="#FF8100" d="M25.25,103.017c-0.35,0.338-0.462,0.961-0.25,1.381c0.586,1.145,1.187,2.277,1.806,3.4
			c0.225,0.408,0.754,0.535,1.178,0.287c4.914-2.91,10.094-5.453,15.382-7.865c1.808-1.391,2.152-4.293,1.893-4.684
			c-1.256-1.889-1.979-2.164-4.604-2.297c-0.28-0.375-1.716-0.188-2.129,0.023C33.716,95.746,29.337,99.08,25.25,103.017z"/>
		<g>
			<path fill="#FF8100" d="M68.977,103.017c0.35,0.338,0.462,0.961,0.25,1.381c-0.586,1.145-1.188,2.277-1.807,3.4
				c-0.225,0.408-0.754,0.535-1.178,0.287c-4.914-2.91-10.094-5.453-15.381-7.865c-1.809-1.391-1.869-4.293-1.609-4.684
				c1.256-1.889,1.695-2.164,4.32-2.297c0.28-0.375,1.717-0.188,2.129,0.023C60.51,95.746,64.889,99.08,68.977,103.017z"/>
		</g>
	</g>
	<g>
		<path fill="#005BC9" d="M65.49,52.758c-0.096-0.322-0.38-0.559-0.74-0.57c0,0-8.306-0.244-17.637-0.295
			c-9.331,0.051-17.637,0.295-17.637,0.295c-0.36,0.012-0.645,0.248-0.74,0.57c0.042,0.632,0.089,1.267,0.134,1.899l4.016,38.219
			c0.12,0.91,0.239,1.818,0.362,2.73c0.168,0.303,0.497,0.521,0.846,0.531c0,0,6.112,0.135,13.019,0.162
			c6.906-0.027,13.02-0.162,13.02-0.162c0.349-0.01,0.678-0.229,0.846-0.531c0.123-0.912,0.242-1.82,0.361-2.73l4.016-38.219
			C65.401,54.023,65.448,53.39,65.49,52.758z"/>
		<g>
			<g>
				<g>
					<path fill="#26EFFF" d="M45.723,63.519c-0.312,0-0.646-0.242-0.742-0.539l-1.032-3.178c-0.097-0.297,0.031-0.688,0.283-0.872
						l2.702-1.963c0.252-0.184,0.665-0.184,0.917,0l2.701,1.963c0.253,0.184,0.38,0.575,0.284,0.872l-1.032,3.178
						c-0.096,0.297-0.43,0.539-0.742,0.539H45.723z"/>
				</g>
				<g>
					<path fill="#26EFFF" d="M46.17,75.624c-0.305,0.065-0.682-0.103-0.838-0.373l-1.669-2.893
						c-0.156-0.271-0.112-0.681,0.096-0.912l2.235-2.482c0.208-0.231,0.612-0.317,0.897-0.19l3.051,1.359
						c0.284,0.127,0.491,0.484,0.458,0.794l-0.349,3.322c-0.033,0.31-0.31,0.616-0.614,0.682L46.17,75.624z"/>
				</g>
				<g>
					<path fill="#26EFFF" d="M44.823,87.233c-0.307-0.057-0.591-0.355-0.632-0.664l-0.438-3.311
						c-0.041-0.309,0.155-0.672,0.437-0.806l3.014-1.441c0.281-0.134,0.687-0.06,0.902,0.167l2.301,2.42
						c0.215,0.227,0.27,0.636,0.121,0.909l-1.592,2.938c-0.148,0.273-0.521,0.452-0.827,0.396L44.823,87.233z"/>
				</g>
			</g>
		</g>
	</g>
	<g>
		<g>
			<g>
				<g>
					<path fill="#FF8100" d="M25.698,11.353c1.247,0,3.288,0,4.535,0h3.79c1.247,0,1.768-0.89,1.158-1.978l-1.943-3.464
						c-0.61-1.087-1.609-2.868-2.219-3.955l-1.943-3.464c-0.61-1.087-1.609-1.087-2.219,0l-1.943,3.464
						c-0.61,1.087-1.609,2.868-2.219,3.955L20.75,9.375c-0.61,1.087-0.089,1.978,1.158,1.978H25.698z"/>
				</g>
				<g>
					<path fill="#FF8100" d="M64.064,11.353c1.247,0,3.288,0,4.535,0h3.79c1.247,0,1.769-0.89,1.158-1.978l-1.944-3.464
						c-0.61-1.087-1.608-2.868-2.219-3.955l-1.943-3.464c-0.61-1.087-1.608-1.087-2.219,0l-1.944,3.464
						c-0.61,1.087-1.608,2.868-2.219,3.955l-1.943,3.464c-0.61,1.087-0.089,1.978,1.158,1.978H64.064z"/>
				</g>
			</g>
			<g>
				<g>
					<path fill="#F7FF00" d="M62.682,11.922c-0.779,0-1.086-0.545-0.681-1.211l3.594-5.914c0.405-0.666,1.067-0.666,1.473,0
						l3.594,5.914c0.405,0.666,0.099,1.211-0.681,1.211H62.682z"/>
				</g>
				<g>
					<path fill="#F7FF00" d="M24.317,11.922c-0.78,0-1.086-0.545-0.681-1.211l3.594-5.914c0.405-0.666,1.067-0.666,1.473,0
						l3.594,5.914c0.405,0.666,0.099,1.211-0.681,1.211H24.317z"/>
				</g>
			</g>
		</g>
	</g>
	<g>
		<g>
			<path fill="#FF8100" d="M20.373,51.461c-1.559,0-2.834-1.275-2.834-2.834V12.964c0-1.559,1.275-2.834,2.834-2.834h53.55
				c1.56,0,2.835,1.275,2.835,2.834v35.663c0,1.559-1.275,2.834-2.835,2.834H20.373z"/>
		</g>
		<g>
			<path fill="#D16A00" d="M23.803,47.776c-1.559,0-2.834-1.275-2.834-2.834V16.649c0-1.559,1.275-2.834,2.834-2.834h46.69
				c1.56,0,2.835,1.275,2.835,2.834v28.292c0,1.559-1.275,2.834-2.835,2.834H23.803z"/>
		</g>
		<g>
			<path fill="#FDFFE6" d="M24.37,47.209c-1.559,0-2.834-1.275-2.834-2.834V17.216c0-1.559,1.275-2.834,2.834-2.834h45.557
				c1.56,0,2.835,1.275,2.835,2.834v27.159c0,1.559-1.275,2.834-2.835,2.834H24.37z"/>
		</g>
	</g>
	<g>
		<ellipse fill="#FFAAAA" cx="27.186" cy="34.237" rx="5.021" ry="3.453"/>
		<ellipse fill="#FFAAAA" cx="67.559" cy="34.237" rx="5.021" ry="3.453"/>
	</g>
	<g>
		
			<polyline fill="none" stroke="#4D1E00" stroke-width="1.5" stroke-linecap="round" stroke-linejoin="round" stroke-miterlimit="10" points="
			31.604,31.194 36.926,28.907 42.247,26.618 36.926,24.331 31.604,22.042 		"/>
		
			<polyline fill="none" stroke="#4D1E00" stroke-width="1.5" stroke-linecap="round" stroke-linejoin="round" stroke-miterlimit="10" points="
			62.692,31.194 57.37,28.907 52.049,26.618 57.37,24.331 62.692,22.042 		"/>
		
			<path fill="#FF3838" stroke="#4D1E00" stroke-width="1.5" stroke-linecap="round" stroke-linejoin="round" stroke-miterlimit="10" d="
			M47.148,35.553c-0.481,1.914-2.2,3.338-4.264,3.338c-0.504,0-0.981-0.104-1.433-0.26c-0.107,0.367-0.17,0.746-0.17,1.141
			c0,2.67,2.627,4.834,5.867,4.834c3.241,0,5.868-2.164,5.868-4.834c0-0.395-0.063-0.773-0.171-1.141
			c-0.452,0.156-0.929,0.26-1.433,0.26C49.348,38.891,47.629,37.467,47.148,35.553z"/>
		
			<path fill="none" stroke="#4D1E00" stroke-width="1.5" stroke-linecap="round" stroke-linejoin="round" stroke-miterlimit="10" d="
			M38.474,34.479c0,2.438,1.975,4.412,4.411,4.412c2.063,0,3.782-1.424,4.264-3.338c0.481,1.914,2.2,3.338,4.264,3.338
			c2.436,0,4.41-1.975,4.41-4.412"/>
	</g>
	<g>
		<g>
			
				<line fill="none" stroke="#4D1E00" stroke-linecap="round" stroke-linejoin="round" stroke-miterlimit="10" x1="62.302" y1="35.036" x2="70.389" y2="33.807"/>
			
				<line fill="none" stroke="#4D1E00" stroke-linecap="round" stroke-linejoin="round" stroke-miterlimit="10" x1="70.389" y1="41.012" x2="62.303" y2="36.946"/>
		</g>
		<g>
			
				<line fill="none" stroke="#4D1E00" stroke-linecap="round" stroke-linejoin="round" stroke-miterlimit="10" x1="31.994" y1="35.036" x2="23.908" y2="33.807"/>
			
				<line fill="none" stroke="#4D1E00" stroke-linecap="round" stroke-linejoin="round" stroke-miterlimit="10" x1="23.907" y1="41.012" x2="31.994" y2="36.946"/>
		</g>
	</g>
</g>
</svg>
