<?xml version="1.0" encoding="utf-8"?>
<!-- Generator: Adobe Illustrator 16.0.3, SVG Export Plug-In . SVG Version: 6.00 Build 0)  -->
<!DOCTYPE svg PUBLIC "-//W3C//DTD SVG 1.1//EN" "http://www.w3.org/Graphics/SVG/1.1/DTD/svg11.dtd">
<svg version="1.1" id="レイヤー_1" xmlns="http://www.w3.org/2000/svg" xmlns:xlink="http://www.w3.org/1999/xlink" x="0px"
	 y="0px" width="94.32px" height="114.572px" viewBox="-0.047 -4.922 94.32 114.572"
	 enable-background="new -0.047 -4.922 94.32 114.572" xml:space="preserve">
<g id="悲しい">
	<g>
		<path fill="#FF8100" d="M67.637,106.426c0.119,0.472-0.115,1.061-0.516,1.304c-1.102,0.662-2.212,1.308-3.33,1.936
			c-0.406,0.228-0.924,0.056-1.152-0.379c-2.635-5.066-5.692-9.961-8.91-14.801c-0.274-0.415-0.154-0.916,0.271-1.109
			c2.064-0.94,4.157-1.825,6.278-2.655c0.436-0.169,0.997,0.015,1.235,0.412C64.287,95.78,66.244,100.924,67.637,106.426z"/>
		<path fill="#FF8100" d="M32.262,106.426c-0.119,0.472,0.115,1.061,0.516,1.304c1.102,0.662,2.212,1.308,3.33,1.936
			c0.406,0.228,0.923,0.056,1.151-0.379c2.636-5.066,5.693-9.961,8.91-14.801c0.275-0.415,0.155-0.916-0.271-1.109
			c-2.064-0.94-4.157-1.825-6.278-2.655c-0.436-0.169-0.997,0.015-1.235,0.412C35.612,95.78,33.654,100.924,32.262,106.426z"/>
	</g>
	<g>
		<path fill="#005BC9" d="M68.324,51.602c-0.094-0.321-0.379-0.559-0.739-0.569c0,0-8.306-0.245-17.637-0.296
			c-9.331,0.051-17.637,0.296-17.637,0.296c-0.36,0.011-0.645,0.248-0.739,0.569c0.041,0.633,0.089,1.267,0.134,1.901l4.016,38.219
			c0.12,0.909,0.239,1.818,0.362,2.729c0.168,0.304,0.496,0.522,0.846,0.531c0,0,6.112,0.135,13.019,0.163
			c6.907-0.028,13.019-0.163,13.019-0.163c0.35-0.009,0.678-0.228,0.846-0.531c0.123-0.911,0.242-1.82,0.363-2.729l4.016-38.22
			C68.236,52.868,68.283,52.234,68.324,51.602z"/>
		<g>
			<g>
				<g>
					<path fill="#26EFFF" d="M48.557,62.363c-0.312,0-0.646-0.242-0.741-0.539l-1.032-3.177c-0.097-0.297,0.031-0.689,0.283-0.872
						l2.702-1.963c0.253-0.183,0.665-0.183,0.918,0l2.701,1.963c0.253,0.183,0.38,0.575,0.284,0.872l-1.032,3.177
						c-0.096,0.297-0.43,0.539-0.741,0.539H48.557z"/>
				</g>
				<g>
					<path fill="#26EFFF" d="M49.005,74.468c-0.305,0.065-0.683-0.103-0.838-0.373l-1.669-2.893
						c-0.156-0.271-0.112-0.681,0.096-0.912l2.236-2.482c0.208-0.231,0.612-0.317,0.896-0.19l3.051,1.359
						c0.284,0.127,0.491,0.484,0.458,0.794l-0.35,3.322c-0.033,0.31-0.31,0.616-0.614,0.682L49.005,74.468z"/>
				</g>
				<g>
					<path fill="#26EFFF" d="M47.657,86.078c-0.307-0.057-0.591-0.355-0.632-0.664l-0.438-3.312
						c-0.041-0.309,0.155-0.672,0.437-0.806l3.012-1.441c0.281-0.134,0.688-0.06,0.902,0.167l2.302,2.42
						c0.215,0.227,0.27,0.636,0.121,0.909l-1.591,2.938c-0.148,0.273-0.521,0.452-0.827,0.396L47.657,86.078z"/>
				</g>
			</g>
		</g>
	</g>
	<g>
		<g>
			<g>
				<g>
					<g>
						<path fill="#FF8100" d="M22.446,17.029c1.226-0.229,3.232-0.605,4.458-0.835l3.725-0.698c1.226-0.229,1.574-1.2,0.774-2.157
							l-2.548-3.047c-0.8-0.957-2.11-2.522-2.91-3.479l-2.548-3.046c-0.8-0.957-1.781-0.773-2.181,0.409l-1.271,3.762
							c-0.4,1.182-1.054,3.115-1.453,4.296l-1.272,3.763c-0.399,1.181,0.276,1.96,1.502,1.73L22.446,17.029z"/>
					</g>
					<g>
						<path fill="#FF8100" d="M60.156,9.962c1.226-0.229,3.231-0.605,4.457-0.835l3.725-0.698c1.226-0.229,1.574-1.2,0.773-2.157
							l-2.547-3.046c-0.801-0.957-2.109-2.522-2.91-3.479L61.107-3.3c-0.801-0.957-1.782-0.772-2.182,0.409l-1.271,3.762
							C57.254,2.053,56.6,3.986,56.2,5.167L54.928,8.93c-0.399,1.181,0.276,1.96,1.502,1.73L60.156,9.962z"/>
					</g>
				</g>
				<g>
					<g>
						<path fill="#F7FF00" d="M58.903,10.777c-0.766,0.144-1.167-0.335-0.893-1.065l2.444-6.474
							c0.274-0.729,0.926-0.852,1.446-0.271l4.622,5.15c0.521,0.58,0.319,1.172-0.446,1.316L58.903,10.777z"/>
					</g>
					<g>
						<path fill="#F7FF00" d="M21.194,17.843c-0.766,0.144-1.168-0.335-0.893-1.065l2.443-6.475
							c0.275-0.729,0.926-0.852,1.447-0.271l4.622,5.151c0.521,0.58,0.319,1.172-0.447,1.316L21.194,17.843z"/>
					</g>
				</g>
			</g>
		</g>
		<g>
			<g>
				<path fill="#FF8100" d="M24.6,57.432c-1.532,0.287-3.021-0.731-3.308-2.264l-6.568-35.053c-0.287-1.532,0.732-3.021,2.264-3.308
					l52.635-9.863c1.532-0.287,3.021,0.732,3.309,2.264l6.572,35.054c0.287,1.532-0.731,3.021-2.264,3.308L24.6,57.432z"/>
			</g>
			<g>
				<path fill="#D16A00" d="M27.292,53.178c-1.532,0.287-3.021-0.731-3.308-2.264l-5.211-27.809
					c-0.287-1.532,0.732-3.021,2.264-3.308l45.892-8.6c1.532-0.287,3.021,0.732,3.309,2.264l5.217,27.81
					c0.287,1.532-0.731,3.021-2.264,3.308L27.292,53.178z"/>
			</g>
			<g>
				<path fill="#FDFFE6" d="M27.745,52.518c-1.532,0.287-3.021-0.732-3.308-2.264l-5.002-26.695
					c-0.287-1.532,0.732-3.021,2.264-3.308l44.776-8.391c1.532-0.287,3.021,0.732,3.309,2.264l5.007,26.694
					c0.287,1.532-0.731,3.021-2.264,3.308L27.745,52.518z"/>
			</g>
		</g>
		<g>
			
				<polyline fill="none" stroke="#4D1E00" stroke-width="1.5" stroke-linecap="round" stroke-linejoin="round" stroke-miterlimit="10" points="
				31.906,35.443 36.715,32.214 41.524,28.985 35.872,27.716 30.22,26.446 			"/>
			
				<polyline fill="none" stroke="#4D1E00" stroke-width="1.5" stroke-linecap="round" stroke-linejoin="round" stroke-miterlimit="10" points="
				62.462,29.718 56.81,28.448 51.158,27.18 55.967,23.95 60.776,20.721 			"/>
			
				<path fill="#FF3838" stroke="#4D1E00" stroke-width="1.5" stroke-linecap="round" stroke-linejoin="round" stroke-miterlimit="10" d="
				M49.401,38.585c-0.484-0.16-0.902-0.412-1.193-0.796c-0.189,0.544-0.564,0.986-1.035,1.354c-0.635,0.898-1.593,1.569-2.761,1.788
				c-0.753,0.141-1.488,0.063-2.168-0.159c-0.152,0.016-0.224,0.02-0.167,0.018c0,0-0.301,5.769,2.686,4.765
				c1.541-0.518,3.445-1.398,4.731-1.689c1.304-0.194,3.255-0.036,4.879-0.111c2.823-0.131,0.858-4.466,0.423-5.358
				c-0.561,0.47-1.232,0.821-2.003,0.966C51.552,39.593,50.344,39.273,49.401,38.585z"/>
			
				<path fill="none" stroke="#4D1E00" stroke-width="1.5" stroke-linecap="round" stroke-linejoin="round" stroke-miterlimit="10" d="
				M39.264,37.407c0.448,2.395,2.753,3.972,5.147,3.523c2.027-0.38,3.455-2.095,3.575-4.065c0.826,1.793,2.777,2.875,4.806,2.495
				c2.395-0.449,3.972-2.754,3.522-5.147"/>
		</g>
		<g>
			<g>
				
					<line fill="none" stroke="#4D1E00" stroke-linecap="round" stroke-linejoin="round" stroke-miterlimit="10" x1="62.785" y1="33.564" x2="70.508" y2="30.868"/>
				
					<line fill="none" stroke="#4D1E00" stroke-linecap="round" stroke-linejoin="round" stroke-miterlimit="10" x1="71.835" y1="37.95" x2="63.139" y2="35.443"/>
			</g>
			<g>
				
					<line fill="none" stroke="#4D1E00" stroke-linecap="round" stroke-linejoin="round" stroke-miterlimit="10" x1="32.997" y1="39.146" x2="24.823" y2="39.429"/>
				
					<line fill="none" stroke="#4D1E00" stroke-linecap="round" stroke-linejoin="round" stroke-miterlimit="10" x1="26.15" y1="46.511" x2="33.349" y2="41.025"/>
			</g>
			<g>
				<g>
					<path fill="none" stroke="#4D1E00" stroke-linecap="round" stroke-linejoin="round" stroke-miterlimit="10" d="M42.764,17.952
						c0,0,1.066,2.344-0.2,3.726"/>
					<path fill="none" stroke="#4D1E00" stroke-linecap="round" stroke-linejoin="round" stroke-miterlimit="10" d="M40.391,19.617
						c0.972,2.219,0.721,2.085-0.192,3.013c-1.72,1.746-5.444,2.165-5.444,2.165"/>
				</g>
				<g>
					<path fill="none" stroke="#4D1E00" stroke-linecap="round" stroke-linejoin="round" stroke-miterlimit="10" d="M46.45,17.262
						c0,0-0.146,2.57,1.536,3.4"/>
					<path fill="none" stroke="#4D1E00" stroke-linecap="round" stroke-linejoin="round" stroke-miterlimit="10" d="M49.266,17.954
						c-0.104,2.421,0.082,2.205,1.27,2.738c2.234,1.005,5.859,0.047,5.859,0.047"/>
				</g>
			</g>
		</g>
		<g>
			<path fill="#3DB5FF" d="M30.196,34.385l-4.159,5.611c-0.985,1.327-2.857,1.605-4.186,0.621c-1.327-0.984-1.604-2.857-0.621-4.185
				c0.505-0.682,1.255-1.088,2.035-1.188L30.196,34.385z"/>
			<path fill="#3DB5FF" d="M63.229,28.269l5.909,3.724c1.4,0.881,3.25,0.461,4.135-0.938c0.882-1.397,0.463-3.245-0.937-4.126
				c-0.719-0.452-1.567-0.559-2.332-0.368L63.229,28.269z"/>
		</g>
	</g>
	<g>
		<g>
			<g>
				<path fill="#FF8100" d="M77.346,57.361c0.282,0.727-0.081,1.553-0.808,1.835l-3.434,1.335c-0.727,0.282-1.553-0.081-1.835-0.808
					L61.121,33.603c-0.282-0.727,0.081-1.552,0.808-1.835l3.434-1.335c0.727-0.283,1.553,0.081,1.835,0.808L77.346,57.361z"/>
			</g>
			<g>
				<path fill="#FF8100" d="M28.966,66.085c-0.186,0.758-0.957,1.226-1.714,1.04l-3.579-0.876c-0.757-0.186-1.225-0.956-1.039-1.714
					l6.669-27.219c0.186-0.757,0.957-1.225,1.714-1.04l3.58,0.877c0.757,0.185,1.225,0.957,1.039,1.713L28.966,66.085z"/>
			</g>
		</g>
	</g>
</g>
</svg>
