<?xml version="1.0" encoding="utf-8"?>
<!-- Generator: Adobe Illustrator 15.1.0, SVG Export Plug-In . SVG Version: 6.00 Build 0)  -->
<!DOCTYPE svg PUBLIC "-//W3C//DTD SVG 1.1//EN" "http://www.w3.org/Graphics/SVG/1.1/DTD/svg11.dtd">
<svg version="1.1" id="レイヤー_1" xmlns="http://www.w3.org/2000/svg" xmlns:xlink="http://www.w3.org/1999/xlink" x="0px"
	 y="0px" width="94.227px" height="104.333px" viewBox="0 0 94.227 104.333" enable-background="new 0 0 94.227 104.333"
	 xml:space="preserve">
<g id="レイヤー_5_1_">
	<path fill="#0066FF" d="M60.391,68.586c1.824-0.197,3.972,5.783,4.796,13.358c0.823,7.577,0.014,13.88-1.812,14.078
		c-1.824,0.196-3.973-5.784-4.793-13.358C57.757,75.088,58.569,68.786,60.391,68.586z"/>
	
		<linearGradient id="SVGID_1_" gradientUnits="userSpaceOnUse" x1="-233.6785" y1="225.7808" x2="-246.4988" y2="225.7808" gradientTransform="matrix(1 0 0 -1 309.02 321.8291)">
		<stop  offset="0.0061" style="stop-color:#F08300"/>
		<stop  offset="0.3636" style="stop-color:#F08300"/>
		<stop  offset="0.4909" style="stop-color:#0066FF"/>
		<stop  offset="1" style="stop-color:#0066FF"/>
	</linearGradient>
	<path fill="url(#SVGID_1_)" d="M62.76,93.851c1.023-1.211,3.585,0,4.438,0.521c0.854,0.521,2.22,2.078,3.073,1.731
		c0.854-0.345,0.673-1.919,2.959-1.731c1.815,0.147,3.243,3.06,0.854,4.098c-2.391,1.039-4.325-0.979-4.325-0.979
		s-2.105,0.461-3.813,0.114C64.24,97.256,61.736,95.064,62.76,93.851z"/>
	
		<linearGradient id="SVGID_2_" gradientUnits="userSpaceOnUse" x1="-238.9851" y1="217.7046" x2="-244.1199" y2="229.8015" gradientTransform="matrix(1 0 0 -1 309.02 321.8291)">
		<stop  offset="0.0061" style="stop-color:#F08300"/>
		<stop  offset="0.2424" style="stop-color:#F08300"/>
		<stop  offset="0.3818" style="stop-color:#F08300"/>
		<stop  offset="0.4182" style="stop-color:#0066FF"/>
		<stop  offset="1" style="stop-color:#0066FF"/>
	</linearGradient>
	<path fill="url(#SVGID_2_)" d="M63.162,92.779c1.619-0.415,3.077,2.188,3.493,3.154c0.415,0.967,0.638,3.14,1.581,3.362
		c0.943,0.224,1.915-1.236,3.765,0.318c1.469,1.235,0.251,4.771-2.436,4.205c-2.686-0.564-2.614-3.646-2.614-3.646
		s-2.091-0.889-3.344-2.229C62.354,96.606,61.544,93.195,63.162,92.779z"/>
	<path fill="#0066FF" d="M62.417,94.109c2.478-0.247-1.98-0.991-1.733,1.485s-0.494,3.715,1.487,3.715
		c1.979,0,1.731-0.247,1.979-1.98C64.399,95.594,59.941,94.357,62.417,94.109z"/>
	<path fill="#DA832A" d="M62.414,98.625c1.443,0,2.613,1.276,2.613,2.853s-1.17,2.854-2.613,2.854s-2.615-1.278-2.615-2.854
		C59.799,99.903,60.971,98.625,62.414,98.625z"/>
</g>
<g id="レイヤー_5のコピー_1_">
	<path fill="#0066FF" d="M35.598,81.987c-0.885,7.568-3.081,13.532-4.903,13.318c-1.822-0.213-2.582-6.521-1.695-14.092
		c0.886-7.567,3.082-13.532,4.903-13.318C35.725,68.108,36.485,74.417,35.598,81.987z"/>
	
		<linearGradient id="SVGID_3_" gradientUnits="userSpaceOnUse" x1="-931.0212" y1="232.6733" x2="-943.8425" y2="232.6733" gradientTransform="matrix(-1 -0.0082 0.0082 -1 -914.2023 320.2717)">
		<stop  offset="0.0061" style="stop-color:#F08300"/>
		<stop  offset="0.3636" style="stop-color:#F08300"/>
		<stop  offset="0.4909" style="stop-color:#0066FF"/>
		<stop  offset="1" style="stop-color:#0066FF"/>
	</linearGradient>
	<path fill="url(#SVGID_3_)" d="M28.112,96.866c-1.71,0.332-3.813-0.146-3.813-0.146s-1.951,2.004-4.333,0.945
		c-2.381-1.059-0.93-3.959,0.888-4.092c2.288-0.168,2.093,1.404,2.945,1.758c0.851,0.353,2.229-1.195,3.086-1.707
		c0.858-0.514,3.429-1.703,4.443-0.483C32.342,94.36,29.821,96.534,28.112,96.866z"/>
	
		<linearGradient id="SVGID_4_" gradientUnits="userSpaceOnUse" x1="-936.3289" y1="224.5962" x2="-941.4641" y2="236.694" gradientTransform="matrix(-1 -0.0082 0.0082 -1 -914.2023 320.2717)">
		<stop  offset="0.0061" style="stop-color:#F08300"/>
		<stop  offset="0.2424" style="stop-color:#F08300"/>
		<stop  offset="0.3818" style="stop-color:#F08300"/>
		<stop  offset="0.4182" style="stop-color:#0066FF"/>
		<stop  offset="1" style="stop-color:#0066FF"/>
	</linearGradient>
	<path fill="url(#SVGID_4_)" d="M30.446,97.225c-1.265,1.329-3.361,2.201-3.361,2.201s0.045,3.08-2.645,3.625
		s-3.879-3.002-2.399-4.225c1.861-1.541,2.82-0.072,3.767-0.289s1.187-2.386,1.608-3.35c0.424-0.963,1.902-3.555,3.52-3.125
		C32.548,92.493,31.711,95.897,30.446,97.225z"/>
	<path fill="#0066FF" d="M29.909,96.604c0.231,1.734-0.018,1.98,1.963,1.997s1.25-1.228,1.517-3.702
		c0.27-2.475-4.195-1.768-1.72-1.499C34.143,93.668,29.675,94.87,29.909,96.604z"/>
	<path fill="#DA832A" d="M34.226,100.792c-0.013,1.574-1.195,2.844-2.638,2.832c-1.444-0.014-2.604-1.299-2.592-2.875
		s1.193-2.842,2.639-2.832C33.078,97.928,34.239,99.213,34.226,100.792z"/>
</g>
<g id="レイヤー_2">
	<path fill="#0066FF" d="M46.6,38.688c10.841,0,19.631,12.359,19.631,27.605c0,15.244-8.79,18.86-19.631,18.86
		c-10.842,0-19.631-3.616-19.631-18.86C26.969,51.047,35.758,38.688,46.6,38.688z"/>
	<path fill="#E1DD71" d="M46.633,42.301c7.151,0,12.949,8.788,12.949,19.629c0,10.84-5.798,18.05-12.949,18.05
		c-7.152,0-12.95-7.21-12.95-18.05C33.683,51.089,39.481,42.301,46.633,42.301z"/>
</g>
<g id="レイヤー_3_1_">
	<path fill="#2D9963" d="M59.642,47.379c1.979-1.02,7.521,4.806,10.944,13.39c1.193,2.995,1.97,5.692,3.057,9.948
		c0.813,3.178,0.961,6.195-0.06,6.722c-0.983,0.509-0.863-1.918-2.883-4.248c-2.349-2.707-5.038-5.339-6.973-9.091
		C59.493,55.883,57.664,48.399,59.642,47.379z"/>
	
		<linearGradient id="SVGID_5_" gradientUnits="userSpaceOnUse" x1="-205.095" y1="305.5864" x2="-205.095" y2="318.9429" gradientTransform="matrix(0.9831 0.183 0.183 -0.9831 214.5659 423.6093)">
		<stop  offset="0.0061" style="stop-color:#F08300"/>
		<stop  offset="0.2788" style="stop-color:#F08300"/>
		<stop  offset="0.3939" style="stop-color:#0066FF"/>
		<stop  offset="1" style="stop-color:#0066FF"/>
	</linearGradient>
	<path fill="url(#SVGID_5_)" d="M73.252,73.11c1.093,1.227-0.523,3.672-1.181,4.473c-0.655,0.797-2.451,1.969-2.223,2.895
		c0.23,0.924,1.868,0.969,1.344,3.283c-0.418,1.838-3.607,2.875-4.32,0.275c-0.719-2.6,1.633-4.285,1.633-4.285
		s-0.165-2.226,0.438-3.924C69.547,74.127,72.159,71.885,73.252,73.11z"/>
	
		<linearGradient id="SVGID_6_" gradientUnits="userSpaceOnUse" x1="-969.9749" y1="270.0884" x2="-969.9749" y2="283.4438" gradientTransform="matrix(-0.9958 -0.0913 0.0913 -0.9958 -917.4924 266.6875)">
		<stop  offset="0.0061" style="stop-color:#F08300"/>
		<stop  offset="0.2788" style="stop-color:#F08300"/>
		<stop  offset="0.3939" style="stop-color:#0066FF"/>
		<stop  offset="1" style="stop-color:#0066FF"/>
	</linearGradient>
	<path fill="url(#SVGID_6_)" d="M75.659,76.811c0.117,1.8-0.646,3.896-0.646,3.896s1.804,2.262,0.407,4.568
		s-4.184,0.439-4.085-1.441c0.126-2.371,1.713-1.969,2.187-2.795c0.474-0.828-0.937-2.445-1.352-3.391
		c-0.413-0.947-1.303-3.74,0.083-4.623C73.636,72.143,75.539,75.012,75.659,76.811z"/>
	
		<linearGradient id="SVGID_7_" gradientUnits="userSpaceOnUse" x1="-894.6335" y1="161.3589" x2="-894.6335" y2="174.7144" gradientTransform="matrix(-0.9743 0.2254 -0.2254 -0.9743 -758.1796 444.1177)">
		<stop  offset="0.0061" style="stop-color:#F08300"/>
		<stop  offset="0.2788" style="stop-color:#F08300"/>
		<stop  offset="0.3939" style="stop-color:#0066FF"/>
		<stop  offset="1" style="stop-color:#0066FF"/>
	</linearGradient>
	<path fill="url(#SVGID_7_)" d="M76.582,75.44c0.676,1.672,0.607,3.902,0.607,3.902s2.421,1.582,1.816,4.211
		c-0.601,2.627-3.833,1.73-4.329-0.088c-0.624-2.291,1.01-2.406,1.199-3.34c0.19-0.935-1.654-2.026-2.345-2.795
		c-0.69-0.771-2.41-3.146-1.371-4.418C73.198,71.642,75.906,73.771,76.582,75.44z"/>
</g>
<g id="レイヤー_7">
	<path fill="#FFFFFF" stroke="#231B00" stroke-width="0.25" d="M52.725,42.027c0,0,6.024,1.4,8.217,3.931
		c2.321,2.678,7.191,7.966,9.287,13.167c1.379,3.416,5.186,12.771,5.186,12.771l-6.479,2.777l-2.989-6.567c0,0,0,5.806,0,8.22
		c0,2.68,0.714,8.396,0.714,9.289s-0.179,2.68-0.179,2.68l-12.326,0.894c0,0-1.429-26.082-1.07-30.728
		c0.354-4.645,1.785-9.826,1.25-12.327C53.796,43.635,52.725,42.027,52.725,42.027z"/>
	<path fill="#FFFFFF" stroke="#231B00" stroke-width="0.25" d="M55.561,42.085c0,0,0.997,0.399,2.194,2.592
		c1.197,2.194,1.396,5.188,1.396,5.188l-2.991-0.399l2.991,1.796c0,0-2.193,1.396-3.191,3.789c-0.996,2.396-3.166,6.607-3.166,6.607
		s0.176-8.802,0.974-12.391c0.798-3.591,0-5.984,0-5.984l-1.396-1.597L55.561,42.085z"/>
</g>
<g id="レイヤー_9">
	<path fill="#98CCCB" d="M55.271,54.667h8.857c0.315,0,0.571,0.256,0.571,0.571v4.856c0,0.316-0.256,0.572-0.571,0.572h-8.857
		c-0.314,0-0.569-0.256-0.569-0.572v-4.856C54.7,54.922,54.955,54.667,55.271,54.667z"/>
	<path fill="#008DB8" d="M54.623,55.444h9.964v0.826h-9.964V55.444z"/>
	<path fill="#FFFFFF" d="M55.33,56.643h3.56v3.559h-3.56V56.643z"/>
	<g id="レイヤー_1のコピー">
		<g id="レイヤー_4_1_">
			<path fill="#2D9963" d="M57.018,57.682c0.895,0,1.617,0.552,1.617,1.134c0,0.581-0.724,0.546-1.617,0.546
				c-0.893,0-1.616,0.035-1.616-0.546C55.402,58.234,56.125,57.682,57.018,57.682z"/>
		</g>
		<g id="レイヤー_9_1_">
			<path fill="#E1DD71" d="M57.031,58.62c-0.568-0.002-1.339,0.08-1.456,0.291c-0.097,0.17,0.006,0.217,0.122,0.266
				c0.271,0.109,0.993,0.136,1.316,0.146c0.419,0.012,1.235-0.078,1.352-0.146c0.096-0.055,0.287-0.141,0.157-0.275
				C58.392,58.767,57.555,58.624,57.031,58.62z"/>
		</g>
		<g id="レイヤー_10_1_">
			<path fill="#BD5F1E" d="M56.992,58.665c0.854,0,1.336,0.203,1.297,0.252c-0.04,0.049-0.925,0.037-1.22,0.043
				s-1.127-0.006-1.272-0.055C55.673,58.863,56.139,58.665,56.992,58.665z"/>
		</g>
		<g id="レイヤー_11_1_">
			<path fill="#8B4726" d="M57.205,58.206c0.012,0.006-0.002,0.031-0.033,0.059c-0.029,0.027-0.063,0.045-0.074,0.04
				c-0.012-0.007,0.002-0.031,0.031-0.06C57.16,58.219,57.194,58.202,57.205,58.206z"/>
		</g>
		<g id="レイヤー_12_1_">
			<path fill="#8B4726" d="M56.85,58.208c-0.013,0.004,0.003,0.03,0.032,0.058c0.03,0.026,0.063,0.044,0.075,0.039
				s-0.002-0.03-0.033-0.058C56.895,58.219,56.862,58.202,56.85,58.208z"/>
		</g>
		<g id="レイヤー_3_2_">
			<path fill="#2D9963" d="M58.08,57.327c0.237,0,0.434,0.195,0.434,0.436c0,0.238-0.195,0.434-0.434,0.434
				c-0.24,0-0.435-0.193-0.435-0.434S57.84,57.327,58.08,57.327z"/>
		</g>
		<g id="レイヤー_5_2_">
			<path fill="#DA832A" d="M58.078,57.465c0.171,0,0.311,0.14,0.311,0.311c0,0.174-0.14,0.311-0.311,0.311
				c-0.173,0-0.312-0.137-0.312-0.311C57.768,57.605,57.906,57.465,58.078,57.465z"/>
		</g>
		<g id="レイヤー_5のコピー_2_">
			<path fill="#0F1C0C" d="M58.078,57.538c0.127,0,0.229,0.104,0.229,0.23s-0.102,0.229-0.229,0.229s-0.23-0.103-0.23-0.229
				C57.848,57.641,57.951,57.538,58.078,57.538z"/>
		</g>
		<g id="レイヤー_3のコピー_2_">
			<path fill="#2D9963" d="M55.99,57.327c0.239,0,0.435,0.195,0.435,0.436c0,0.238-0.194,0.434-0.435,0.434
				c-0.239,0-0.434-0.193-0.434-0.434S55.75,57.327,55.99,57.327z"/>
		</g>
		<g id="レイヤー_5のコピー_3_1_">
			<path fill="#DA832A" d="M55.989,57.465c0.172,0,0.312,0.14,0.312,0.311c0,0.174-0.14,0.311-0.312,0.311s-0.312-0.137-0.312-0.311
				C55.677,57.605,55.817,57.465,55.989,57.465z"/>
		</g>
		<g id="レイヤー_5のコピー_2_1_">
			<path fill="#0F1C0C" d="M55.989,57.538c0.128,0,0.229,0.104,0.229,0.23s-0.104,0.229-0.229,0.229s-0.229-0.103-0.229-0.229
				C55.758,57.641,55.862,57.538,55.989,57.538z"/>
		</g>
		<g id="レイヤー_14_1_">
			<path fill="#CA231E" d="M57.158,59.575c0,0,0.198,0.227,0.304,0.156c0.104-0.07,0.095-0.191,0.095-0.27s-0.068-0.164-0.146-0.164
				c-0.078,0-0.32,0.113-0.32,0.113L57.158,59.575z"/>
			<path fill="#CA231E" d="M56.906,59.569c0,0-0.198,0.227-0.304,0.156c-0.104-0.07-0.095-0.191-0.095-0.27s0.068-0.164,0.146-0.164
				c0.079,0,0.321,0.112,0.321,0.112L56.906,59.569z"/>
			<path fill="#CA231E" d="M57.04,59.356c0.081,0,0.146,0.066,0.146,0.146c0,0.082-0.065,0.146-0.146,0.146
				s-0.147-0.064-0.147-0.146C56.893,59.422,56.959,59.356,57.04,59.356z"/>
		</g>
	</g>
</g>
<g id="レイヤー_3のコピー_1_">
	<path fill="#2D9963" d="M29.699,64.395c-1.769,3.833-4.341,6.579-6.567,9.387c-1.917,2.416-1.69,4.834-2.695,4.37
		c-1.041-0.479-1.026-3.503-0.353-6.713c0.898-4.299,2.601-8.052,3.862-11.019c3.703-8.7,7.083-13.842,9.104-12.911
		C35.071,48.443,33.571,56,29.699,64.395z"/>
	
		<linearGradient id="SVGID_8_" gradientUnits="userSpaceOnUse" x1="-871.2395" y1="169.5298" x2="-871.2395" y2="182.8853" gradientTransform="matrix(-0.9742 0.2259 -0.2259 -0.9742 -784.9463 448.1212)">
		<stop  offset="0.0061" style="stop-color:#F08300"/>
		<stop  offset="0.2788" style="stop-color:#F08300"/>
		<stop  offset="0.3939" style="stop-color:#0066FF"/>
		<stop  offset="1" style="stop-color:#0066FF"/>
	</linearGradient>
	<path fill="url(#SVGID_8_)" d="M25.003,76.338c0.677,1.67,0.608,3.898,0.608,3.898s2.424,1.582,1.82,4.211
		c-0.599,2.629-3.831,1.731-4.329-0.086c-0.625-2.291,1.009-2.406,1.199-3.341c0.189-0.933-1.656-2.024-2.347-2.795
		c-0.691-0.771-2.412-3.142-1.374-4.415C21.617,72.54,24.325,74.668,25.003,76.338z"/>
	
		<linearGradient id="SVGID_9_" gradientUnits="userSpaceOnUse" x1="-294.0891" y1="196.2231" x2="-294.0891" y2="209.5767" gradientTransform="matrix(0.9909 -0.1348 -0.1348 -0.9909 339.2032 241.7682)">
		<stop  offset="0.0061" style="stop-color:#F08300"/>
		<stop  offset="0.2788" style="stop-color:#F08300"/>
		<stop  offset="0.3939" style="stop-color:#0066FF"/>
		<stop  offset="1" style="stop-color:#0066FF"/>
	</linearGradient>
	<path fill="url(#SVGID_9_)" d="M21.574,73.684c1.422,0.82,0.655,3.65,0.283,4.615c-0.373,0.965-1.71,2.64-1.2,3.445
		c0.508,0.807,2.076,0.334,2.306,2.696c0.18,1.876-2.524,3.862-4.019,1.619c-1.495-2.244,0.207-4.584,0.207-4.584
		s-0.854-2.06-0.815-3.86C18.377,75.813,20.153,72.864,21.574,73.684z"/>
	
		<linearGradient id="SVGID_10_" gradientUnits="userSpaceOnUse" x1="-229.6379" y1="303.0405" x2="-229.6379" y2="316.396" gradientTransform="matrix(0.9832 0.1826 0.1826 -0.9832 187.7175 425.9966)">
		<stop  offset="0.0061" style="stop-color:#F08300"/>
		<stop  offset="0.2788" style="stop-color:#F08300"/>
		<stop  offset="0.3939" style="stop-color:#0066FF"/>
		<stop  offset="1" style="stop-color:#0066FF"/>
	</linearGradient>
	<path fill="url(#SVGID_10_)" d="M21.66,73.569c1.094,1.225-0.521,3.672-1.178,4.473c-0.655,0.797-2.452,1.971-2.22,2.896
		c0.231,0.923,1.868,0.967,1.345,3.281c-0.417,1.84-3.605,2.877-4.321,0.279c-0.72-2.6,1.631-4.289,1.631-4.289
		s-0.166-2.224,0.436-3.924C17.958,74.588,20.569,72.344,21.66,73.569z"/>
	<path fill="none" d="M-12.636,158.667c0.111,0.713,0.011,1.545-0.25,2"/>
</g>
<g id="レイヤー_7のコピー">
	<path fill="#FFFFFF" stroke="#231B00" stroke-width="0.25" d="M38.514,45.709c-0.47,2.513,1.093,7.657,1.57,12.29
		c0.478,4.635-0.275,30.744-0.275,30.744L27.464,88.17c0,0-0.226-1.781-0.248-2.674c-0.023-0.895,0.542-6.627,0.473-9.306
		c-0.063-2.413-1.148-6.885-1.148-6.885l-1.882,5.312l-6.55-2.607c0,0,5.134-10.473,6.21-13.996
		c2.036-6.665,5.332-9.573,7.584-12.312c2.126-2.586,8.112-4.143,8.112-4.143S38.985,43.196,38.514,45.709z"/>
	<path fill="#FFFFFF" stroke="#231B00" stroke-width="0.25" d="M40.361,41.21l-1.354,1.631c0,0-0.736,2.414,0.155,5.982
		c0.891,3.568,1.293,12.362,1.293,12.362s-2.278-4.156-3.336-6.522c-1.06-2.366-3.289-3.706-3.289-3.706l2.944-1.874l-2.98,0.478
		c0,0,0.123-2.997,1.262-5.221c1.139-2.224,2.126-2.649,2.126-2.649L40.361,41.21z"/>
</g>
<g id="レイヤー_1_1_">
	<g id="レイヤー_4_2_">
		<path fill="#0066FF" d="M46.471,8.253c18.521,0,33.531,11.446,33.531,23.501c0,12.055-15.011,11.333-33.531,11.333
			c-18.518,0-33.529,0.723-33.529-11.333C12.942,19.699,27.953,8.253,46.471,8.253z"/>
	</g>
	<g id="レイヤー_9_2_">
		<path fill="#E1DD71" d="M46.739,27.703c-11.792-0.067-27.754,1.649-30.203,6.002c-1.989,3.54,0.112,4.527,2.53,5.509
			c5.607,2.272,20.611,2.814,27.312,3.033c8.69,0.284,25.625-1.593,28.034-2.985c1.989-1.146,5.97-2.956,3.255-5.736
			C74.955,30.745,57.606,27.762,46.739,27.703z"/>
	</g>
	<g id="レイヤー_10_2_">
		<path fill="#BD5F1E" d="M45.937,28.601c17.711,0,27.693,4.242,26.892,5.239c-0.808,0.999-19.16,0.75-25.281,0.874
			c-6.118,0.125-23.364-0.091-26.403-1.124C18.566,32.717,28.225,28.601,45.937,28.601z"/>
	</g>
	<g id="レイヤー_11_2_">
		<path fill="#00006E" d="M50.356,19.103c0.245,0.105-0.061,0.641-0.683,1.199c-0.62,0.556-1.324,0.923-1.569,0.817
			s0.062-0.642,0.684-1.199C49.407,19.364,50.112,18.998,50.356,19.103z"/>
	</g>
	<g id="レイヤー_12_2_">
		<path fill="#000064" d="M42.974,19.114c-0.246,0.104,0.061,0.641,0.682,1.198c0.622,0.557,1.325,0.923,1.569,0.817
			c0.245-0.105-0.061-0.642-0.682-1.199C43.921,19.375,43.219,19.009,42.974,19.114z"/>
	</g>
	<g id="レイヤー_3_3_">
		<path fill="#0066FF" d="M68.492,0.872c4.969,0,8.995,4.028,8.995,8.997c0,4.968-4.026,8.997-8.995,8.997
			c-4.97,0-8.994-4.028-8.994-8.997C59.495,4.901,63.524,0.872,68.492,0.872z"/>
	</g>
	<g id="レイヤー_5_3_">
		<path fill="#DA832A" d="M68.454,3.745c3.563,0,6.448,2.888,6.448,6.45c0,3.563-2.887,6.45-6.448,6.45
			c-3.563,0-6.45-2.888-6.45-6.45S64.892,3.745,68.454,3.745z"/>
	</g>
	<g id="レイヤー_5のコピー_3_">
		<path fill="#0F1C0C" d="M68.454,5.243c2.631,0,4.764,2.132,4.764,4.764c0,2.631-2.133,4.764-4.764,4.764
			c-2.632,0-4.766-2.132-4.766-4.764C63.69,7.376,65.823,5.243,68.454,5.243z"/>
	</g>
	<g id="レイヤー_3のコピー_3_">
		<path fill="#0066FF" d="M25.142,0.872c4.969,0,8.997,4.028,8.997,8.997c0,4.968-4.028,8.997-8.997,8.997
			c-4.968,0-8.997-4.028-8.997-8.997C16.146,4.901,20.174,0.872,25.142,0.872z"/>
	</g>
	<g id="レイヤー_5のコピー_3_2_">
		<path fill="#DA832A" d="M25.104,3.745c3.563,0,6.449,2.888,6.449,6.45c0,3.563-2.887,6.45-6.449,6.45
			c-3.564,0-6.449-2.888-6.449-6.45S21.541,3.745,25.104,3.745z"/>
	</g>
	<g id="レイヤー_5のコピー_2_2_">
		<path fill="#0F1C0C" d="M25.104,5.243c2.631,0,4.765,2.132,4.765,4.764c0,2.631-2.133,4.764-4.765,4.764
			c-2.631,0-4.764-2.132-4.764-4.764C20.34,7.376,22.473,5.243,25.104,5.243z"/>
	</g>
	<g id="レイヤー_14_2_">
		<path fill="#CA231E" d="M49.393,47.496c0,0,4.137,4.676,6.294,3.238c2.156-1.438,1.979-3.958,1.979-5.574
			c0-1.616-1.438-3.417-3.058-3.417c-1.616,0-6.648,2.337-6.648,2.337L49.393,47.496z"/>
		<path fill="#CA231E" d="M44.155,47.373c0,0-4.135,4.675-6.293,3.236c-2.157-1.438-1.978-3.957-1.978-5.573
			c0-1.621,1.438-3.417,3.056-3.417c1.62,0,6.652,2.338,6.652,2.338L44.155,47.373z"/>
		<path fill="#CA231E" d="M46.923,42.956c1.687,0,3.055,1.368,3.055,3.055c0,1.689-1.368,3.057-3.055,3.057
			c-1.689,0-3.059-1.368-3.059-3.057C43.865,44.324,45.233,42.956,46.923,42.956z"/>
	</g>
</g>
</svg>
